<?xml version="1.0" encoding="utf-8"?>
<!-- Generator: Adobe Illustrator 19.0.0, SVG Export Plug-In . SVG Version: 6.00 Build 0)  -->
<!DOCTYPE svg PUBLIC "-//W3C//DTD SVG 1.1//EN" "http://www.w3.org/Graphics/SVG/1.1/DTD/svg11.dtd">
<svg version="1.1" id="Layer_1" xmlns="http://www.w3.org/2000/svg" xmlns:xlink="http://www.w3.org/1999/xlink" x="0px" y="0px"
	 viewBox="0 0 573.8 554.1" enable-background="new 0 0 573.8 554.1" xml:space="preserve">
<g id="XMLID_4_" opacity="0.3">
	<g id="XMLID_11_">
		<path id="XMLID_3_" fill="#FFFFFF" d="M72,64.3c1.9-2.7,5-5.7,8.5-6.3c4-0.6,4.2,4.2,3.9,6.9c0,0.2-0.1,1.1,0.4,1
			c4.3-1.5,7.8-4.5,11.7-6.8c3.6-2.1,7.9-3.8,12.1-2.8c7.1,1.6,8.3,10,6.8,16c-0.8,3.3-2.9,6.3-5,9c-2.4,3-5.4,5.7-8.8,7.7
			c-3.1,1.8-6.7,2.9-10.3,2.3c-3.6-0.6-6.9-3.1-6.8-7c0-1.8,0.8-3.5,1.7-4.9c0.5-0.7-0.2-2.5-1.2-2.3c-3.8,0.7-7.2,2.9-10.9,4
			c-1.6,0.5-3.5,0.8-5.2,0.2c-1.2-0.5-2.1-1.4-2.5-2.4c-0.3-1-0.1-2.5,0.2-3.7c0.4-1.6,1.1-3.1,1.8-4.5c1.5-2.9,3.5-5.6,5.4-8.2
			c0.2-0.3,0.4-0.6,0.7-0.9c0.6-0.6-0.1-2.8-0.9-2c-0.4,0.4-0.9,0.8-1.3,1.2c-0.5,0.6-1,1.1-1.4,1.7c-1,1.3-2,2.7-2.9,4.1
			c-1.7,2.8-3.2,5.9-3.5,9.3c-0.3,3.2,1.2,6.2,4.1,7.6c3.4,1.7,7.7-0.2,10.8-1.5c2.1-0.9,4.2-1.9,6.5-2.4c-0.4-0.8-0.8-1.5-1.2-2.3
			c-2.2,3.5-2.7,7.9-0.6,11.6c2,3.3,5.8,5.1,9.6,5.2c7.6,0.1,14.3-5.8,18.6-11.4c2.1-2.7,3.8-5.8,4.6-9.1c0.9-3.7,0.8-7.6-0.3-11.3
			c-1-3.1-2.9-5.9-5.8-7.4c-3.4-1.7-7.5-0.9-10.8,0.5c-5.4,2.3-9.4,7-15,9c0.1,0.3,0.3,0.7,0.4,1c0.3-3,0.4-9.3-4.2-8.8
			c-4.1,0.5-7.3,4.8-9.4,8C71.4,64.8,71.7,64.7,72,64.3L72,64.3z"/>
	</g>
	<g id="XMLID_9_">
		<path id="XMLID_2_" fill="#FFFFFF" d="M96.7,55.4C97.9,48.2,96,38,88,35.5c-6.8-2.1-13.9,2.7-18.9,6.8c-5.2,4.3-9.8,9.4-13.7,14.9
			c-4.3,6.1-8,13.3-8.5,20.9c-0.2,3.7,0.5,7.5,2.4,10.7c2.2,3.7,5.8,6.5,9.7,8.1c4.1,1.7,8.5,1.9,12.7,0.5c4.1-1.4,7.8-4.3,10.4-7.7
			c0.7-0.9,1.3-1.9,1.8-2.9c0.4-0.7-0.4-3.1-1.2-2c-2.7,3.6-5.9,7-10,9.1c-3.8,2-8.2,2.3-12.3,1.1c-4.1-1.2-8-4-10.2-7.7
			c-1.8-2.9-2.2-6.3-2-9.6c0.3-3.7,1.6-7.4,3.1-10.7c1.6-3.5,3.6-6.8,5.9-9.9c4-5.4,8.8-10.5,14.2-14.5c4.6-3.4,11-6.9,16.9-4.7
			c6.9,2.6,8.3,11.6,7.5,18c0,0.2,0,0.6,0.3,0.4C96.5,56.1,96.7,55.7,96.7,55.4L96.7,55.4z"/>
	</g>
	<g id="XMLID_7_">
		<path id="XMLID_1_" fill="#FFFFFF" d="M46,75c-2.4-3.1-5.1-6.3-5-10.4c0.1-3.5,2.3-6.7,4.6-9.1c2.7-2.7,6.1-4.8,9.7-6.3
			c1.8-0.7,3.7-1.3,5.6-1.7c0.9-0.2,1.8-0.3,2.7-0.4c0.9-0.1,1.8-0.1,2.6-0.3c0.8-0.2,0.7-2.1,0-2.3c-1.9-0.3-3.9,0-5.8,0.3
			c-1.9,0.4-3.8,1-5.5,1.7c-3.5,1.4-6.8,3.5-9.5,6.1c-2.4,2.4-4.4,5.4-5.1,8.7c-0.8,3.8,0,7.7,2.1,11c0.8,1.2,1.8,2.3,3.1,3.2
			C45.6,75.7,46.1,75.1,46,75L46,75z"/>
	</g>
</g>
<g id="XMLID_6_" opacity="0.3">
	<g id="XMLID_14_">
		<path id="XMLID_15_" fill="#FFFFFF" d="M217.7,196.7c2.7,1.9,5.7,5,6.3,8.5c0.6,4-4.2,4.2-6.9,3.9c-0.2,0-1.1-0.1-1,0.4
			c1.5,4.3,4.5,7.8,6.8,11.7c2.1,3.6,3.8,7.9,2.8,12.1c-1.6,7.1-10,8.3-16,6.8c-3.3-0.8-6.3-2.9-9-5c-3-2.4-5.7-5.4-7.7-8.8
			c-1.8-3.1-2.9-6.7-2.3-10.3c0.6-3.6,3.1-6.9,7-6.8c1.8,0,3.5,0.8,4.9,1.7c0.7,0.5,2.5-0.2,2.3-1.2c-0.7-3.8-2.9-7.2-4-10.9
			c-0.5-1.6-0.8-3.5-0.2-5.2c0.5-1.2,1.4-2.1,2.4-2.5c1-0.3,2.5-0.1,3.7,0.2c1.6,0.4,3.1,1.1,4.5,1.8c2.9,1.5,5.6,3.5,8.2,5.4
			c0.3,0.2,0.6,0.4,0.9,0.7c0.6,0.6,2.8-0.1,2-0.9c-0.4-0.4-0.8-0.9-1.2-1.3c-0.6-0.5-1.1-1-1.7-1.4c-1.3-1-2.7-2-4.1-2.9
			c-2.8-1.7-5.9-3.2-9.3-3.5c-3.2-0.3-6.2,1.2-7.6,4.1c-1.7,3.4,0.2,7.7,1.5,10.8c0.9,2.1,1.9,4.2,2.4,6.5c0.8-0.4,1.5-0.8,2.3-1.2
			c-3.5-2.2-7.9-2.7-11.6-0.6c-3.3,2-5.1,5.8-5.2,9.6c-0.1,7.6,5.8,14.3,11.4,18.6c2.7,2.1,5.8,3.8,9.1,4.6
			c3.7,0.9,7.6,0.8,11.3-0.3c3.1-1,5.9-2.9,7.4-5.8c1.7-3.4,0.9-7.5-0.5-10.8c-2.3-5.4-7-9.4-9-15c-0.3,0.1-0.7,0.3-1,0.4
			c3,0.3,9.3,0.4,8.8-4.2c-0.5-4.1-4.8-7.3-8-9.4C217.3,196,217.4,196.4,217.7,196.7L217.7,196.7z"/>
	</g>
	<g id="XMLID_12_">
		<path id="XMLID_13_" fill="#FFFFFF" d="M226.7,221.4c7.2,1.1,17.4-0.7,19.9-8.7c2.1-6.8-2.7-13.9-6.8-18.9
			c-4.3-5.2-9.4-9.8-14.9-13.7c-6.1-4.3-13.3-8-20.9-8.5c-3.7-0.2-7.5,0.5-10.7,2.4c-3.7,2.2-6.5,5.8-8.1,9.7
			c-1.7,4.1-1.9,8.5-0.5,12.7c1.4,4.1,4.3,7.8,7.7,10.4c0.9,0.7,1.9,1.3,2.9,1.8c0.7,0.4,3.1-0.4,2-1.2c-3.6-2.7-7-5.9-9.1-10
			c-2-3.8-2.3-8.2-1.1-12.3c1.2-4.1,4-8,7.7-10.2c2.9-1.8,6.3-2.2,9.6-2c3.7,0.3,7.4,1.6,10.7,3.1c3.5,1.6,6.8,3.6,9.9,5.9
			c5.4,4,10.5,8.8,14.5,14.2c3.4,4.6,6.9,11,4.7,16.9c-2.6,6.9-11.6,8.3-18,7.5c-0.2,0-0.6,0-0.4,0.3
			C226,221.2,226.4,221.4,226.7,221.4L226.7,221.4z"/>
	</g>
	<g id="XMLID_8_">
		<path id="XMLID_10_" fill="#FFFFFF" d="M207.1,170.7c3.1-2.4,6.3-5.1,10.4-5c3.5,0.1,6.7,2.3,9.1,4.6c2.7,2.7,4.8,6.1,6.3,9.7
			c0.7,1.8,1.3,3.7,1.7,5.6c0.2,0.9,0.3,1.8,0.4,2.7c0.1,0.9,0.1,1.8,0.3,2.6c0.2,0.8,2.1,0.7,2.3,0c0.3-1.9,0-3.9-0.3-5.8
			c-0.4-1.9-1-3.8-1.7-5.5c-1.4-3.5-3.5-6.8-6.1-9.5c-2.4-2.4-5.4-4.4-8.7-5.1c-3.8-0.8-7.7,0-11,2.1c-1.2,0.8-2.3,1.8-3.2,3.1
			C206.3,170.3,207,170.8,207.1,170.7L207.1,170.7z"/>
	</g>
</g>
<g id="XMLID_23_" opacity="0.3">
	<g id="XMLID_28_">
		<path id="XMLID_29_" fill="#FFFFFF" d="M86.7,345.1c-0.7,3.3-2.4,7.2-5.3,9.1c-3.4,2.1-5.5-2.2-6.3-4.8c-0.1-0.2-0.4-1.1-0.8-0.7
			c-3.3,3.1-5.4,7.2-8,10.9c-2.4,3.4-5.8,6.6-10,7.4c-7.2,1.3-11.6-6-12.5-12.1c-0.5-3.4,0.1-6.9,1.1-10.2c1-3.7,2.8-7.4,5.1-10.5
			c2.1-2.9,5.1-5.3,8.6-6.1c3.6-0.8,7.6,0.1,9,3.8c0.7,1.6,0.7,3.5,0.4,5.2c-0.1,0.8,1.2,2.2,2,1.6c3.2-2.1,5.5-5.5,8.5-8
			c1.3-1.1,2.9-2.1,4.7-2.2c1.3,0,2.5,0.5,3.2,1.2c0.7,0.8,1.1,2.2,1.3,3.4c0.3,1.6,0.2,3.3,0.1,4.9c-0.3,3.3-1,6.5-1.8,9.7
			c-0.1,0.4-0.2,0.7-0.3,1.1c-0.3,0.8,1.2,2.6,1.6,1.4c0.2-0.6,0.6-1.1,0.7-1.7c0.2-0.7,0.4-1.4,0.6-2.2c0.4-1.6,0.8-3.2,1-4.9
			c0.5-3.3,0.6-6.7-0.4-9.9c-1-3-3.5-5.2-6.7-5.4c-3.8-0.3-7,3.2-9.3,5.7c-1.6,1.6-3.1,3.4-5,4.7c0.7,0.5,1.3,1.1,2,1.6
			c0.6-4-0.6-8.4-4-10.8c-3.1-2.3-7.4-2.4-10.9-1c-7,2.9-10.8,10.9-12.6,17.8c-0.8,3.3-1.2,6.8-0.6,10.2c0.7,3.7,2.2,7.4,4.7,10.3
			c2.1,2.5,5,4.3,8.3,4.5c3.8,0.2,7.3-2.1,9.8-4.7c4.1-4.2,5.9-10.1,10.3-14.1c-0.3-0.2-0.5-0.5-0.8-0.7c0.9,2.9,3.3,8.7,7.3,6.5
			c3.6-2,4.8-7.2,5.5-11C87.1,344.5,86.8,344.7,86.7,345.1L86.7,345.1z"/>
	</g>
	<g id="XMLID_26_">
		<path id="XMLID_27_" fill="#FFFFFF" d="M67.5,363.1c1.8,7.1,7.5,15.7,15.8,14.8c7.1-0.7,11.7-8,14.7-13.7c3.1-6,5.3-12.5,6.8-19
			c1.6-7.3,2.1-15.4-0.4-22.5c-1.2-3.5-3.4-6.7-6.4-8.9c-3.4-2.6-7.9-3.7-12.1-3.7c-4.4,0-8.6,1.6-11.9,4.5c-3.3,2.9-5.5,7-6.6,11.2
			c-0.3,1.1-0.4,2.3-0.5,3.4c-0.1,0.8,1.6,2.7,1.9,1.3c1.1-4.4,2.7-8.8,5.6-12.3c2.8-3.3,6.6-5.4,10.9-5.8c4.2-0.5,9,0.6,12.4,3
			c2.8,2,4.5,4.9,5.6,8c1.2,3.5,1.5,7.4,1.4,11.1c-0.1,3.8-0.6,7.7-1.5,11.4c-1.6,6.6-3.9,13.1-7.4,18.9c-2.9,5-7.4,10.7-13.7,10.9
			c-7.4,0.3-12.2-7.4-14-13.6c0-0.2-0.2-0.5-0.4-0.3C67.4,362.3,67.4,362.8,67.5,363.1L67.5,363.1z"/>
	</g>
	<g id="XMLID_24_">
		<path id="XMLID_25_" fill="#FFFFFF" d="M106.4,325.1c3.4,1.9,7.2,3.7,8.7,7.6c1.3,3.2,0.5,7.1-0.7,10.2c-1.4,3.6-3.7,6.8-6.4,9.6
			c-1.4,1.4-2.9,2.7-4.5,3.8c-0.8,0.5-1.5,1-2.3,1.5c-0.8,0.4-1.6,0.8-2.3,1.3c-0.6,0.4,0.2,2.2,0.9,2.1c1.9-0.4,3.6-1.5,5.2-2.6
			c1.6-1.1,3.1-2.4,4.4-3.7c2.7-2.7,4.9-5.9,6.3-9.4c1.3-3.2,1.9-6.7,1.3-10c-0.8-3.8-3-7.1-6.2-9.3c-1.2-0.8-2.6-1.4-4.1-1.7
			C106.5,324.3,106.3,325,106.4,325.1L106.4,325.1z"/>
	</g>
</g>
<g id="XMLID_16_" opacity="0.3">
	<g id="XMLID_21_">
		<path id="XMLID_22_" fill="#FFFFFF" d="M208.5,480.4c0.2-3.3,1.3-7.5,3.9-9.8c3-2.6,5.8,1.4,7,3.8c0.1,0.2,0.5,1,0.9,0.6
			c2.8-3.6,4.3-7.9,6.3-12c1.9-3.7,4.7-7.4,8.8-8.8c6.9-2.4,12.3,4.2,14.2,10c1,3.3,0.9,6.9,0.5,10.2c-0.5,3.9-1.6,7.7-3.4,11.1
			c-1.7,3.2-4.2,6-7.6,7.4c-3.4,1.4-7.5,1-9.5-2.4c-0.9-1.5-1.2-3.3-1.2-5.1c0-0.9-1.5-2-2.2-1.3c-2.9,2.6-4.6,6.3-7.2,9.1
			c-1.1,1.3-2.6,2.5-4.3,2.9c-1.3,0.2-2.6-0.1-3.4-0.7c-0.8-0.6-1.4-2-1.8-3.2c-0.5-1.5-0.7-3.2-0.8-4.8c-0.2-3.3,0-6.6,0.3-9.8
			c0-0.4,0-0.7,0.1-1.1c0.2-0.8-1.6-2.3-1.8-1.2c-0.1,0.6-0.4,1.2-0.5,1.8c-0.1,0.7-0.2,1.5-0.3,2.2c-0.2,1.7-0.3,3.3-0.3,5
			c0,3.3,0.4,6.7,1.9,9.7c1.4,2.9,4.3,4.6,7.5,4.3c3.8-0.3,6.4-4.2,8.4-7c1.3-1.9,2.6-3.9,4.3-5.4c-0.7-0.4-1.5-0.9-2.2-1.3
			c0,4.1,1.9,8.2,5.6,10.1c3.4,1.8,7.7,1.3,10.9-0.7c6.5-3.9,9.1-12.4,9.8-19.5c0.3-3.4,0.2-6.9-0.9-10.2c-1.2-3.6-3.3-6.9-6.2-9.4
			c-2.4-2.1-5.6-3.5-8.9-3.2c-3.8,0.4-6.9,3.1-9,6.1c-3.4,4.8-4.3,10.9-8,15.5c0.3,0.2,0.6,0.4,0.9,0.6c-1.3-2.7-4.6-8.1-8.2-5.3
			c-3.3,2.6-3.7,7.9-3.8,11.7C208.2,481.1,208.4,480.8,208.5,480.4L208.5,480.4z"/>
	</g>
	<g id="XMLID_19_">
		<path id="XMLID_20_" fill="#FFFFFF" d="M224.8,459.7c-2.8-6.7-9.8-14.4-17.9-12.3c-6.9,1.8-10.4,9.6-12.4,15.7
			c-2.2,6.4-3.4,13.1-3.8,19.8c-0.5,7.5,0.2,15.5,3.8,22.2c1.7,3.3,4.4,6.1,7.7,7.8c3.8,2,8.3,2.4,12.5,1.8
			c4.4-0.7,8.3-2.9,11.1-6.3c2.8-3.4,4.4-7.7,4.8-12c0.1-1.1,0.1-2.3,0-3.4c-0.1-0.8-2-2.4-2.1-1c-0.4,4.5-1.3,9.1-3.7,13
			c-2.2,3.7-5.7,6.3-9.9,7.4c-4.1,1.1-8.9,0.8-12.7-1.1c-3-1.5-5.2-4.1-6.7-7.1c-1.7-3.3-2.6-7.1-3-10.8c-0.5-3.8-0.5-7.7-0.2-11.5
			c0.6-6.7,1.9-13.6,4.4-19.8c2.2-5.3,5.7-11.7,11.9-12.9c7.2-1.4,13.2,5.5,15.9,11.4c0.1,0.2,0.3,0.5,0.4,0.2
			C225,460.4,224.9,460,224.8,459.7L224.8,459.7z"/>
	</g>
	<g id="XMLID_17_">
		<path id="XMLID_18_" fill="#FFFFFF" d="M192,503.1c-3.7-1.3-7.7-2.6-9.7-6.2c-1.7-3-1.6-6.9-0.8-10.1c0.9-3.7,2.7-7.3,4.9-10.4
			c1.2-1.6,2.5-3.1,3.9-4.4c0.7-0.6,1.4-1.2,2.1-1.8c0.7-0.5,1.5-1,2.1-1.6c0.6-0.5-0.5-2.2-1.2-1.9c-1.8,0.7-3.4,2.1-4.8,3.4
			c-1.4,1.3-2.7,2.8-3.8,4.4c-2.2,3.1-3.9,6.5-4.8,10.2c-0.8,3.3-0.9,6.9,0.3,10.1c1.3,3.7,4,6.6,7.6,8.2c1.3,0.6,2.8,1,4.3,1.1
			C192.1,504,192.2,503.2,192,503.1L192,503.1z"/>
	</g>
</g>
<g id="XMLID_51_" opacity="0.3">
	<g id="XMLID_56_">
		<path id="XMLID_57_" fill="#FFFFFF" d="M356.2,61.4c-3-1.5-7.2-2.6-10.5-1.5c-3.8,1.3-1.7,5.7-0.1,8c0.1,0.2,0.6,1,0.1,1.1
			c-4.5,0.7-9-0.2-13.5-0.4c-4.1-0.2-8.8,0.4-12,3.3c-5.5,4.8-2.5,12.8,1.7,17.3c2.3,2.5,5.5,4.2,8.7,5.5c3.6,1.5,7.5,2.4,11.4,2.5
			c3.6,0.1,7.3-0.7,10.1-3c2.9-2.3,4.6-6,2.6-9.4c-0.9-1.5-2.3-2.7-3.8-3.5c-0.8-0.4-1-2.3-0.1-2.6c3.7-1.2,7.7-0.9,11.5-1.7
			c1.7-0.4,3.5-1,4.6-2.3c0.8-1,1.2-2.3,1-3.3c-0.2-1-1.1-2.2-1.9-3.1c-1.1-1.2-2.4-2.2-3.8-3.1c-2.7-1.8-5.8-3.2-8.7-4.6
			c-0.3-0.2-0.7-0.3-1-0.4c-0.8-0.3-1.2-2.6-0.1-2.2c0.6,0.2,1.2,0.3,1.8,0.4c0.7,0.2,1.4,0.5,2.1,0.8c1.5,0.6,3,1.4,4.5,2.2
			c2.9,1.6,5.7,3.7,7.5,6.5c1.8,2.7,1.9,6,0.1,8.6c-2.1,3.2-6.8,3.5-10.2,3.8c-2.3,0.2-4.6,0.3-6.8,1c0-0.9,0-1.7-0.1-2.6
			c3.6,2,6.2,5.7,6,9.9c-0.1,3.9-2.7,7.3-6,9.1c-6.6,3.7-15.3,1.7-21.8-1.2c-3.1-1.4-6.1-3.3-8.4-5.8c-2.5-2.8-4.4-6.3-5.1-10.1
			c-0.6-3.2-0.3-6.6,1.6-9.3c2.2-3.1,6.1-4.4,9.7-4.8c5.8-0.6,11.6,1.6,17.5,0.7c0,0.4,0.1,0.7,0.1,1.1c-1.7-2.5-4.8-8-0.5-9.7
			c3.9-1.6,8.7,0.7,12,2.5C357,61.5,356.6,61.6,356.2,61.4L356.2,61.4z"/>
	</g>
	<g id="XMLID_54_">
		<path id="XMLID_55_" fill="#FFFFFF" d="M330.2,65.4c-4.5-5.8-7.7-15.6-1.9-21.6c5-5.1,13.5-4.2,19.8-3c6.6,1.3,13.1,3.5,19.1,6.5
			c6.7,3.3,13.4,7.9,17.4,14.3c2,3.1,3.1,6.8,3,10.5c-0.1,4.3-2,8.5-4.6,11.8c-2.7,3.5-6.6,5.8-10.9,6.5c-4.3,0.8-8.9,0-12.8-1.8
			c-1.1-0.5-2-1.1-3-1.7c-0.7-0.5-1.1-2.9,0.1-2.3c4.1,1.9,8.6,3.3,13.1,3.2c4.3-0.1,8.3-1.9,11.3-4.9c3-3,5.1-7.4,5.3-11.6
			c0.2-3.4-1-6.6-2.9-9.4c-2-3.1-4.9-5.7-7.9-8c-3.1-2.3-6.4-4.3-9.9-5.9c-6.1-2.8-12.7-5-19.4-5.9c-5.7-0.8-13-0.8-17.1,4
			c-4.8,5.6-1.8,14.2,2,19.4c0.1,0.1,0.3,0.5-0.1,0.5C330.7,65.9,330.4,65.6,330.2,65.4L330.2,65.4z"/>
	</g>
	<g id="XMLID_52_">
		<path id="XMLID_53_" fill="#FFFFFF" d="M384.1,58.3c0.6-3.9,1.5-8-0.6-11.5c-1.7-3-5.2-4.8-8.4-5.7c-3.7-1.1-7.7-1.3-11.5-0.9
			c-2,0.2-3.9,0.6-5.8,1.2c-0.9,0.3-1.7,0.6-2.6,0.9c-0.8,0.3-1.6,0.8-2.4,1c-0.7,0.2-1.6-1.5-1.1-2c1.5-1.2,3.5-1.9,5.3-2.5
			c1.8-0.6,3.8-0.9,5.7-1.2c3.8-0.4,7.6-0.2,11.3,0.9c3.3,1,6.4,2.6,8.7,5.2c2.5,3,3.7,6.7,3.4,10.6c-0.1,1.5-0.5,2.9-1.2,4.2
			C384.8,58.8,384,58.5,384.1,58.3L384.1,58.3z"/>
	</g>
</g>
<g id="XMLID_44_" opacity="0.3">
	<g id="XMLID_49_">
		<path id="XMLID_50_" fill="#FFFFFF" d="M494.8,205.8c-1.9,2.7-5.1,5.7-8.6,6.2c-4,0.6-4.1-4.3-3.8-7c0-0.2,0.1-1.1-0.4-1
			c-4.3,1.5-7.9,4.4-11.7,6.7c-3.6,2.1-8,3.7-12.1,2.7c-7.1-1.7-8.2-10.1-6.6-16.1c0.9-3.3,2.9-6.3,5.1-8.9c2.5-3,5.5-5.6,8.9-7.6
			c3.1-1.8,6.8-2.8,10.3-2.1c3.6,0.7,6.9,3.2,6.7,7.1c-0.1,1.8-0.8,3.4-1.8,4.9c-0.5,0.7,0.2,2.5,1.2,2.3c3.8-0.7,7.2-2.8,11-3.9
			c1.7-0.5,3.5-0.8,5.2-0.1c1.2,0.5,2.1,1.4,2.4,2.4c0.3,1,0.1,2.5-0.2,3.6c-0.4,1.6-1.1,3.1-1.9,4.5c-1.5,2.9-3.6,5.6-5.5,8.1
			c-0.2,0.3-0.4,0.6-0.7,0.9c-0.6,0.6,0.1,2.8,0.9,2c0.4-0.4,0.9-0.8,1.4-1.2c0.5-0.5,1-1.1,1.5-1.7c1.1-1.3,2-2.7,2.9-4.1
			c1.8-2.8,3.3-5.9,3.6-9.2c0.3-3.2-1.1-6.2-4-7.7c-3.4-1.8-7.7,0.1-10.8,1.4c-2.1,0.9-4.2,1.9-6.5,2.3c0.4,0.8,0.8,1.5,1.2,2.3
			c2.2-3.4,2.8-7.9,0.7-11.5c-1.9-3.4-5.8-5.2-9.6-5.3c-7.6-0.2-14.3,5.6-18.7,11.2c-2.1,2.7-3.9,5.7-4.7,9.1
			c-0.9,3.7-0.9,7.6,0.2,11.3c0.9,3.1,2.8,6,5.8,7.5c3.4,1.7,7.5,1,10.8-0.3c5.4-2.2,9.5-6.9,15.1-8.8c-0.1-0.3-0.3-0.7-0.4-1
			c-0.4,3-0.5,9.3,4.1,8.9c4.2-0.4,7.4-4.7,9.4-7.9C495.5,205.4,495.1,205.4,494.8,205.8L494.8,205.8z"/>
	</g>
	<g id="XMLID_47_">
		<path id="XMLID_48_" fill="#FFFFFF" d="M470,214.5c-1.2,7.2,0.5,17.4,8.5,20c6.8,2.2,13.9-2.6,18.9-6.6c5.3-4.2,9.9-9.2,13.9-14.7
			c4.4-6.1,8.1-13.2,8.7-20.8c0.3-3.7-0.4-7.5-2.3-10.7c-2.1-3.7-5.7-6.5-9.6-8.3c-4-1.8-8.5-2-12.7-0.6c-4.2,1.3-7.8,4.2-10.5,7.6
			c-0.7,0.9-1.3,1.9-1.9,2.9c-0.4,0.7,0.4,3.1,1.2,2c2.7-3.6,6-7,10.1-9c3.9-1.9,8.2-2.2,12.3-0.9c4,1.3,8,4.1,10.1,7.8
			c1.7,2.9,2.2,6.3,1.9,9.6c-0.3,3.7-1.6,7.4-3.2,10.7c-1.6,3.5-3.7,6.8-6,9.8c-4.1,5.4-8.9,10.4-14.4,14.4
			c-4.7,3.3-11.1,6.8-16.9,4.5c-6.9-2.7-8.2-11.7-7.3-18.1c0-0.2,0-0.6-0.3-0.4C470.2,213.7,470,214.1,470,214.5L470,214.5z"/>
	</g>
	<g id="XMLID_45_">
		<path id="XMLID_46_" fill="#FFFFFF" d="M520.9,195.5c2.4,3.1,5.1,6.3,4.9,10.5c-0.1,3.5-2.4,6.7-4.7,9c-2.7,2.7-6.2,4.7-9.7,6.2
			c-1.8,0.7-3.7,1.3-5.7,1.6c-0.9,0.2-1.8,0.3-2.7,0.4c-0.9,0.1-1.8,0-2.6,0.2c-0.8,0.2-0.7,2.1,0,2.3c1.9,0.4,3.9,0.1,5.8-0.3
			c1.9-0.4,3.8-0.9,5.6-1.6c3.5-1.4,6.8-3.4,9.6-6c2.4-2.4,4.4-5.3,5.2-8.7c0.9-3.8,0.1-7.7-2-11c-0.8-1.3-1.8-2.4-3-3.2
			C521.3,194.7,520.8,195.3,520.9,195.5L520.9,195.5z"/>
	</g>
</g>
<g id="XMLID_37_" opacity="0.3">
	<g id="XMLID_42_">
		<path id="XMLID_43_" fill="#FFFFFF" d="M345.9,347.8c1.9,2.8,4.9,5.8,8.4,6.4c4,0.7,4.3-4.1,4-6.9c0-0.2,0-1.1,0.4-1
			c4.3,1.6,7.7,4.6,11.5,7c3.5,2.2,7.8,3.9,12.1,3.1c7.1-1.5,8.5-9.9,7-15.9c-0.8-3.3-2.7-6.4-4.8-9c-2.4-3.1-5.3-5.8-8.7-7.8
			c-3.1-1.9-6.7-3-10.3-2.4c-3.6,0.6-7,3-6.9,6.9c0,1.8,0.7,3.5,1.6,5c0.4,0.7-0.2,2.5-1.2,2.3c-3.8-0.8-7.2-3-10.8-4.2
			c-1.6-0.5-3.5-0.9-5.2-0.2c-1.2,0.5-2.2,1.4-2.5,2.4c-0.3,0.9-0.2,2.5,0.1,3.7c0.4,1.6,1,3.1,1.8,4.5c1.5,2.9,3.4,5.7,5.3,8.3
			c0.2,0.3,0.4,0.6,0.7,0.9c0.5,0.6-0.2,2.8-1,2c-0.4-0.4-0.9-0.8-1.3-1.3c-0.5-0.6-1-1.2-1.4-1.7c-1-1.3-1.9-2.7-2.8-4.2
			c-1.7-2.9-3.1-6-3.4-9.3c-0.2-3.2,1.3-6.1,4.2-7.6c3.4-1.7,7.6,0.3,10.8,1.7c2.1,0.9,4.2,2,6.4,2.5c-0.4,0.8-0.8,1.5-1.2,2.3
			c-2.1-3.5-2.5-8-0.4-11.6c2-3.3,5.9-5,9.7-5c7.6,0,14.2,6,18.4,11.8c2,2.7,3.7,5.9,4.4,9.2c0.8,3.7,0.7,7.7-0.5,11.3
			c-1,3.1-3,5.9-6,7.3c-3.4,1.6-7.5,0.8-10.8-0.6c-5.4-2.4-9.3-7.1-14.8-9.2c0.1-0.3,0.3-0.6,0.4-1c0.3,3,0.2,9.3-4.3,8.7
			c-4.1-0.5-7.2-4.9-9.2-8.1C345.3,347.3,345.7,347.4,345.9,347.8L345.9,347.8z"/>
	</g>
	<g id="XMLID_40_">
		<path id="XMLID_41_" fill="#FFFFFF" d="M370.5,357.2c1,7.2-1,17.4-9,19.7c-6.8,2-13.8-3-18.7-7.1c-5.1-4.4-9.6-9.5-13.4-15.1
			c-4.2-6.2-7.8-13.4-8.1-21c-0.2-3.7,0.6-7.5,2.6-10.6c2.2-3.7,5.9-6.4,9.8-8c4.1-1.7,8.6-1.7,12.7-0.3c4.1,1.5,7.7,4.4,10.3,7.9
			c0.7,0.9,1.3,1.9,1.8,2.9c0.4,0.7-0.5,3.1-1.3,2c-2.6-3.6-5.8-7.1-9.8-9.3c-3.8-2-8.1-2.5-12.3-1.3c-4.1,1.2-8.1,3.9-10.4,7.5
			c-1.8,2.9-2.3,6.2-2.1,9.5c0.2,3.7,1.4,7.4,2.9,10.8c1.5,3.5,3.5,6.9,5.7,10c3.9,5.5,8.6,10.7,14,14.8c4.6,3.5,10.9,7.1,16.8,5
			c6.9-2.5,8.5-11.4,7.8-17.9c0-0.2,0-0.6,0.3-0.4C370.3,356.4,370.5,356.8,370.5,357.2L370.5,357.2z"/>
	</g>
	<g id="XMLID_38_">
		<path id="XMLID_39_" fill="#FFFFFF" d="M320.2,336.7c-2.5,3-5.2,6.2-5.2,10.3c0,3.5,2.2,6.7,4.5,9.1c2.7,2.8,6,4.9,9.5,6.4
			c1.8,0.8,3.7,1.4,5.6,1.8c0.9,0.2,1.8,0.3,2.7,0.5c0.9,0.1,1.8,0.1,2.6,0.3c0.7,0.2,0.7,2.2-0.1,2.3c-1.9,0.3-3.9,0-5.8-0.5
			c-1.9-0.4-3.7-1-5.5-1.8c-3.5-1.5-6.7-3.6-9.4-6.3c-2.4-2.4-4.3-5.4-4.9-8.8c-0.7-3.8,0.1-7.7,2.3-10.9c0.8-1.2,1.9-2.3,3.1-3.1
			C319.8,335.9,320.3,336.5,320.2,336.7L320.2,336.7z"/>
	</g>
</g>
<g id="XMLID_30_" opacity="0.3">
	<g id="XMLID_35_">
		<path id="XMLID_36_" fill="#FFFFFF" d="M485.7,487.9c-3.1-1.1-6.8-3.4-8.2-6.6c-1.6-3.7,3-5.1,5.7-5.5c0.2,0,1.1-0.2,0.8-0.6
			c-2.6-3.8-6.3-6.4-9.6-9.6c-3-2.9-5.7-6.7-5.8-11c-0.2-7.3,7.6-10.6,13.8-10.6c3.4,0,6.8,1.2,9.9,2.5c3.6,1.6,6.9,3.8,9.6,6.6
			c2.5,2.5,4.5,5.8,4.8,9.4c0.3,3.6-1.3,7.5-5.1,8.4c-1.7,0.4-3.5,0.1-5.2-0.4c-0.8-0.3-2.3,0.8-1.9,1.7c1.7,3.5,4.7,6.2,6.6,9.5
			c0.9,1.5,1.7,3.2,1.5,5c-0.2,1.3-0.8,2.4-1.7,3c-0.8,0.5-2.4,0.7-3.6,0.7c-1.6,0-3.3-0.3-4.8-0.6c-3.2-0.7-6.3-2-9.3-3.2
			c-0.3-0.1-0.7-0.3-1-0.4c-0.7-0.4-2.7,0.9-1.7,1.4c0.5,0.3,1,0.7,1.5,1c0.7,0.3,1.3,0.6,2,1c1.5,0.7,3.1,1.2,4.7,1.7
			c3.2,1,6.6,1.6,9.9,1.1c3.2-0.5,5.7-2.7,6.3-5.9c0.8-3.7-2.1-7.3-4.2-10.1c-1.4-1.8-3-3.6-3.9-5.7c-0.6,0.6-1.3,1.2-1.9,1.7
			c3.9,1.2,8.4,0.6,11.3-2.4c2.7-2.7,3.5-6.9,2.6-10.6c-1.8-7.3-9.2-12.3-15.8-15.1c-3.1-1.3-6.6-2.2-10-2.1
			c-3.8,0.1-7.6,1.1-10.8,3.1c-2.8,1.7-5,4.3-5.7,7.5c-0.8,3.7,1,7.5,3.2,10.4c3.6,4.7,9.1,7.4,12.5,12.2c0.3-0.2,0.6-0.4,0.8-0.6
			c-3,0.5-9.1,2-7.5,6.3c1.5,3.9,6.4,5.9,10.1,7C486.3,488.4,486.1,488,485.7,487.9L485.7,487.9z"/>
	</g>
	<g id="XMLID_33_">
		<path id="XMLID_34_" fill="#FFFFFF" d="M470.8,466.2c-7.3,0.7-16.6,5.1-17,13.4c-0.3,7.1,6.2,12.7,11.4,16.5
			c5.5,3.9,11.5,7.1,17.8,9.5c7,2.6,14.9,4.4,22.4,2.9c3.6-0.7,7.1-2.4,9.7-5c3-3,4.8-7.3,5.4-11.4c0.7-4.4-0.3-8.7-2.7-12.4
			c-2.4-3.7-6.1-6.4-10.1-8.1c-1.1-0.5-2.2-0.8-3.3-1c-0.8-0.2-2.9,1.2-1.6,1.7c4.2,1.7,8.3,3.9,11.3,7.3c2.9,3.2,4.3,7.3,4.2,11.6
			c-0.2,4.2-1.9,8.8-4.8,11.8c-2.3,2.4-5.5,3.7-8.8,4.3c-3.7,0.7-7.5,0.4-11.2-0.3c-3.8-0.7-7.5-1.8-11.1-3.2
			c-6.3-2.5-12.4-5.8-17.7-10.1c-4.5-3.6-9.5-8.9-8.8-15.1c0.8-7.3,9.1-11,15.5-11.8c0.2,0,0.6-0.2,0.3-0.4
			C471.5,466.2,471.1,466.2,470.8,466.2L470.8,466.2z"/>
	</g>
	<g id="XMLID_31_">
		<path id="XMLID_32_" fill="#FFFFFF" d="M502.6,510.3c-2.4,3.1-4.8,6.5-8.8,7.5c-3.4,0.8-7.1-0.5-9.9-2.2c-3.3-1.9-6.2-4.7-8.5-7.7
			c-1.2-1.6-2.2-3.3-3.1-5c-0.4-0.8-0.8-1.7-1.1-2.5c-0.3-0.8-0.5-1.7-0.9-2.5c-0.4-0.7-2.3-0.1-2.2,0.6c0.2,1.9,1,3.8,1.8,5.6
			c0.8,1.7,1.9,3.4,3,4.9c2.3,3,5.1,5.7,8.4,7.6c2.9,1.7,6.3,2.9,9.7,2.7c3.9-0.2,7.5-1.9,10.1-4.8c1-1.1,1.8-2.4,2.3-3.8
			C503.4,510.5,502.7,510.1,502.6,510.3L502.6,510.3z"/>
	</g>
</g>
</svg>
