<?xml version="1.0" encoding="utf-8"?>
<!-- Generator: Adobe Illustrator 19.0.0, SVG Export Plug-In . SVG Version: 6.00 Build 0)  -->
<!DOCTYPE svg PUBLIC "-//W3C//DTD SVG 1.1//EN" "http://www.w3.org/Graphics/SVG/1.1/DTD/svg11.dtd">
<svg version="1.1" id="Layer_1" xmlns="http://www.w3.org/2000/svg" xmlns:xlink="http://www.w3.org/1999/xlink" x="0px" y="0px"
	 viewBox="0 0 468 55" enable-background="new 0 0 468 55" xml:space="preserve">
<g>
	<g>
		<path fill="#161D0F" d="M91.9,54.8c-0.9-0.3-1.7-0.5-2.6-0.8c-11.5-3.3-18.7-10.8-20.5-22.6c-1.5-9.8,1.8-18.3,9.5-24.7
			c7.7-6.4,16.5-8,25.9-5c6.2,2,11.6,5.5,14.6,11.8c1.5,3.1,0.7,7-1.5,9.3c-2.7,2.6-6.5,3.5-9.8,1.8c-1.4-0.7-2.6-2-3.7-3.3
			c-2.9-3.1-6.3-4.5-10.5-3.5c-4,1-7,4.4-7.4,8.3c-0.5,4.8,1.5,8.6,5.5,10.6c3.5,1.7,8.1,1,11.2-1.7c0.9-0.8,1.7-1.7,2.6-2.5
			c2.6-2.4,5.6-3,8.8-1.8c3.3,1.2,5.3,3.7,5.5,7.3c0.2,3.2-1.3,5.8-3.5,8c-4.7,4.9-10.2,8.1-17.1,8.6c-0.1,0-0.2,0.2-0.3,0.3
			c-0.7,0-1.3,0-2,0c-0.7,0-1.3,0-2,0C93.7,54.8,92.8,54.8,91.9,54.8z"/>
		<path fill="#161D0F" d="M0.3,8.5c1-1.7,1.6-3.7,2.9-5C5.8,0.8,9.1,0.6,12.3,2c3,1.3,5,3.6,5,7.2c0,3.1,0,6.3,0,9.9
			c0.6-0.7,0.9-1.1,1.1-1.4c2.8-4.1,5.6-8.1,8.4-12.2c3.9-5.8,10.8-5,14.1-0.8c2.3,2.9,2.3,6.8,0,10.2c-2.4,3.6-4.9,7.1-7.3,10.7
			c-0.3,0.5-0.6,0.9-0.9,1.4c3.4,4.4,6.8,8.7,10.2,13c4.5,5.8,0.5,12.9-5.3,13.7c-3.1,0.4-5.7-0.4-7.7-2.9
			c-3.8-4.8-7.7-9.6-11.6-14.4c-0.3-0.3-0.6-0.6-1.1-1.3c0,3,0,5.7,0,8.4c0,2.3-0.2,4.7-1.6,6.7C13.9,53,11.2,54,8,53.7
			c-3.3-0.3-5.6-2-6.8-5c-0.3-0.6-0.6-1.2-0.9-1.9C0.3,34,0.3,21.2,0.3,8.5z"/>
		<path fill="#FFFFFF" d="M184.9,54.8c-2.2-0.8-4.4-1.4-6.4-2.4c-3.9-1.9-7.2-4.6-8.1-9.3c-0.6-3.2,0.3-5.9,2.9-7.8
			c2.6-1.9,5.5-2.1,8.3-0.5c1.2,0.7,2.3,1.5,3.5,2.3c1.2,0.7,2.3,1.5,3.6,2.1c1,0.5,2,0.4,2.6-0.6c0.6-1,0.6-2.2-0.4-3
			c-0.6-0.5-1.3-0.9-2-1.2c-3.2-1.3-6.6-2.4-9.7-3.9c-10.7-5.1-10-21-0.8-26.9c7.6-4.9,18.5-4.5,25.3,1c3.4,2.8,4.3,7.5,2.2,11
			c-1.7,2.7-4.6,3.8-7.8,2.6c-2-0.8-3.8-2.1-5.6-3.1c-0.7-0.4-1.5-1-2.2-1c-0.7,0-1.9,0.3-2.2,0.8c-0.3,0.6,0,1.8,0.5,2.3
			c0.9,0.8,2.1,1.3,3.3,1.9c3.5,1.6,7.1,2.8,10.4,4.7c5.1,3,6.9,7.9,6.8,13.7c-0.1,9-6,15-14.1,16.6c-0.7,0.1-1.3,0.4-2,0.6
			c-0.9,0-1.8,0-2.7,0s-1.8,0-2.7,0C186.7,54.8,185.8,54.8,184.9,54.8z"/>
		<path fill="#FFFFFF" d="M187.6,54.8c0.9,0,1.8,0,2.7,0C189.4,54.8,188.5,54.8,187.6,54.8z"/>
		<path fill="#525650" d="M94.6,54.8c0.7,0,1.3,0,2,0C95.9,54.8,95.3,54.8,94.6,54.8z"/>
		<path fill="#FFFFFF" d="M319.1,38.3c0,2.3,0.1,4.1,0,5.9c-0.1,1.6-0.2,3.3-0.8,4.7c-1.5,3.5-5,5.3-8.7,4.7
			c-3.9-0.6-6.5-3.2-7.2-7.4c-0.2-1.3-0.3-2.5-0.3-3.8c0-10.1,0-20.1,0-30.2c0-2.5,0.2-4.9,1.7-7c1.4-2.1,3.5-3.2,5.9-3.4
			c6-0.5,12.1-1,18.1,0.3c11.3,2.4,17.5,15.9,12,26.1c-0.7,1.3-1.4,2.5-2.4,3.6c-1,1.1-0.9,2-0.1,3.2c1.4,2.1,2.7,4.3,3.8,6.6
			c1.6,3.3,0.9,7.1-1.5,9.5c-2.5,2.5-6.5,3.4-9.7,1.7c-1.6-0.8-2.9-2.4-3.9-3.9c-2.1-3.1-3.9-6.3-5.9-9.5
			C319.8,39.3,319.6,39.1,319.1,38.3z"/>
		<path fill="#FFFFFF" d="M444.9,38.8c0,2.2,0,4.3,0,6.5c-0.1,4.7-3.2,8.2-7.7,8.5c-4.5,0.4-8.1-2.4-9-7.1c-0.2-1.2-0.3-2.5-0.4-3.8
			c0-10.3-0.1-20.7,0.1-31c0-2.1,0.6-4.4,1.5-6.4c1.1-2.3,3.4-3.4,5.9-3.6c6.1-0.5,12.2-0.9,18.2,0.3c7.2,1.5,13,8.4,13.8,15.8
			c0.6,5.2-0.9,9.8-4.1,13.8c-1.1,1.3-1.1,2.2-0.1,3.6c1.4,2.1,2.7,4.3,3.8,6.6c1.7,3.7,0.6,7.8-2.6,10.1c-3.1,2.3-7.7,2.3-10.5-0.2
			c-1-0.9-1.7-2-2.4-3.1c-2.1-3.3-4.1-6.7-6.2-10.1C445.2,38.7,445.1,38.7,444.9,38.8z"/>
		<path fill="#171E10" d="M140.1,18.6c3-4.3,5.9-8.6,8.8-12.8c1.5-2.1,3.1-3.9,5.8-4.4c3.7-0.7,7.2,0.7,9.1,3.8
			c2,3.2,1.7,6.4-0.4,9.5c-2.4,3.5-4.8,7-7.3,10.6c-0.3,0.5-0.7,1-1,1.6c3.4,4.3,6.8,8.6,10.1,12.9c3,3.9,2.6,8.6-0.9,11.8
			c-3.6,3.2-8.9,2.9-12-0.8c-3.8-4.6-7.5-9.4-11.3-14c-0.3-0.4-0.7-0.8-1.4-1.6c0,1.8,0.1,3.2,0,4.6c-0.2,2.9-0.1,5.9-0.9,8.7
			c-1,3.6-4.1,5.5-7.9,5.4c-3.8-0.1-6.8-2.3-7.8-5.9c-0.4-1.5-0.6-3.1-0.6-4.6c0-10.6-0.1-21.1,0-31.7c0-1.9,0.4-3.9,1.1-5.7
			c1.5-3.7,5.2-5.3,9.4-4.5c3.1,0.6,6.6,3.8,6.6,7.6c-0.1,3.1,0.1,6.2,0.1,9.3C139.9,18.4,139.9,18.4,140.1,18.6z"/>
		<path fill="#FFFFFF" d="M298.6,45.2c-0.2,3.7-2.5,6.9-5.9,8.1c-3.8,1.3-7.3,0.2-9.6-3c-0.2-0.2-0.4-0.4-0.5-0.7
			c-0.8-2.7-2.7-3.1-5.2-2.9c-3.4,0.2-6.8,0.1-10.2,0c-1.5-0.1-2.3,0.4-3,1.8c-2,4.2-5.8,6-10.1,5c-4.6-1.1-7.4-6.4-5.6-11.2
			c1.4-3.8,3.3-7.4,5-11.1c3.8-8.1,7.6-16.2,11.4-24.2c1.5-3.2,3.8-5.4,7.5-5.6c3.2-0.2,6.1,0.7,7.7,3.6c2.5,4.7,4.8,9.6,7.1,14.5
			c3.3,7,6.6,13.9,9.8,20.9C297.7,41.9,298.1,43.6,298.6,45.2z"/>
		<path fill="#FFFFFF" d="M407.1,17.6c0,1.3,0,2.3,0,3.6c1.8,0,3.6,0,5.4,0c1.2,0,2.5,0,3.6,0.4c2.1,0.6,3.9,1.8,4.4,4.1
			c0.5,2.3,0.2,4.5-1.6,6.1c-1.6,1.5-3.8,1.6-5.9,1.7c-1.9,0.1-3.8,0-5.8,0c0,1.3,0,2.5,0,3.9c0.7,0,1.3,0,1.9,0
			c3.2,0.1,6.3,0,9.5,0.4c4,0.6,6.3,3.9,6.1,8c-0.2,4-2.7,7-6.7,7.2c-7,0.3-14.1,0.2-21.1,0c-3.5-0.1-6.1-3-6.6-6.5
			c-0.2-1.4-0.3-2.9-0.3-4.3c0-10.3,0.1-20.7,0-31c-0.1-5.7,3.3-9.6,9.1-9.6c5.5,0,11-0.1,16.5-0.1c3,0,5.8,0.6,7.7,3.2
			c2,2.5,2,5.4,0.9,8.2c-1.2,3-3.8,4.3-6.9,4.5c-2.7,0.2-5.4,0.1-8.2,0.1C408.5,17.6,407.9,17.6,407.1,17.6z"/>
		<path fill="#FFFFFF" d="M240.8,17.4c0,1.3,0,2.4,0,3.4c-0.1,8.3-0.1,16.5-0.3,24.8c-0.1,3.7-2.6,6.8-5.8,7.7c-3.4,1-7.2-0.2-9.3-3
			c-1.7-2.2-1.8-4.9-1.8-7.5c0-7.8,0-15.7,0-23.5c0-0.6,0-1.2,0-2c-1.9,0-3.7,0.1-5.5,0c-3.2-0.2-5.9-1.6-7.2-4.6
			c-1.4-3.1-0.7-6.1,1.5-8.7c1.5-1.8,3.6-2.3,5.8-2.3c9.3,0,18.5-0.1,27.8,0c4.7,0.1,7.8,3.3,7.8,7.7c0,4.3-3.2,7.6-7.8,7.9
			C244.5,17.5,242.8,17.4,240.8,17.4z"/>
		<path fill="#FFFFFF" d="M373.6,17.4c0,0.8,0,1.4,0,2c0,7.6,0.1,15.2,0,22.8c0,2-0.2,4-0.9,5.9c-1.4,4.3-4.7,6-9.4,5.3
			c-3.6-0.5-6.3-3.6-6.6-7.7c-0.1-1.5-0.2-3-0.2-4.5c0-7.3,0-14.6,0-21.8c0-0.6,0-1.2,0-2c-1.9,0-3.7,0.1-5.4,0
			c-5.2-0.3-8.3-4-7.7-9.1c0.4-3.6,3.3-6.4,7.3-6.4c9.7-0.2,19.3-0.2,29,0c4.2,0.1,7.3,3.7,7.2,7.8c-0.1,4.3-3.3,7.5-7.8,7.7
			C377.3,17.5,375.6,17.4,373.6,17.4z"/>
		<path fill="#161D0F" d="M48.3,27.7c0-5.9-0.1-11.9,0-17.8c0.1-4.9,2.9-7.9,7.4-8.5c4.1-0.5,7.8,1.8,8.9,5.8
			c0.4,1.7,0.6,3.5,0.6,5.3c0.1,10.3,0,20.5,0,30.8c0,1.4-0.1,2.8-0.5,4.1c-1.1,4.3-4.7,6.8-8.9,6.4c-4.3-0.4-7.4-3.6-7.5-8.1
			C48.2,39.7,48.3,33.7,48.3,27.7z"/>
	</g>
</g>
</svg>
