<?xml version="1.0" encoding="utf-8"?>
<!-- Generator: Adobe Illustrator 19.0.0, SVG Export Plug-In . SVG Version: 6.00 Build 0)  -->
<!DOCTYPE svg PUBLIC "-//W3C//DTD SVG 1.1//EN" "http://www.w3.org/Graphics/SVG/1.1/DTD/svg11.dtd">
<svg version="1.1" id="Layer_1" xmlns="http://www.w3.org/2000/svg" xmlns:xlink="http://www.w3.org/1999/xlink" x="0px" y="0px"
	 viewBox="0 0 287.4 76" enable-background="new 0 0 287.4 76" xml:space="preserve">
<g id="XMLID_7_">
	<path id="XMLID_14_" fill="#363639" d="M282.7,28.7l-12.1-6l0.1-0.6l11.6-0.8L287.4,4l-23.2,1.5c-3.3,0.2-4.6,0.8-5.8,3.9
		c-0.1,0.3-0.3,0.7-0.5,1.2l-1.1,2.6c-0.1-1.9-0.6-3.4-1.7-4.5c-0.9-1-2.6-2.1-5.4-1.9l-25.3,1.8l0-0.2l-21.8,1.4
		c-3.4,0.2-4.6,0.8-5.8,3.9c-0.1,0.3-0.3,0.7-0.5,1.1l-3.7,8.6l1.8-13.1l-18.8,1.3l0,0.1L157.5,13c-3.4,0.2-4.6,0.8-5.8,3.9
		c-0.1,0.3-0.3,0.7-0.5,1.1l-3.6,8.3l1.8-12.9l-18.8,1.3l0,0.4l-18,1.2c-3.7,0.3-4.8,1-6.1,4.3c-0.1,0.3-0.2,0.6-0.3,0.8l-3.4,7.9
		l0.9-6.7c0.1-0.9,0.4-2.6-0.9-4c-1.3-1.4-3.1-1.3-3.9-1.2l-21.5,1.5c0,0,0,0,0,0c-3.7,0.3-4.5,1.5-5.9,4.8l-4,9.2L70.1,14
		c0.3-2-0.3-4.2-1.7-5.7c-1.3-1.4-3.2-2.1-5.2-2l-57,4L4,28.4l24.9-1.7L22.1,76L42,74.6l2.3-16l17-12.4c1.4-1,2.5-2,3.3-3.1
		l-4.2,30.2L97,70.8l0.5-3.5c0.2,0.4,0.5,0.7,0.8,1c1.4,1.4,3.4,2.1,5.6,2l19.3-1.4l0.5,0l16.5-1.2l1.7-0.1l17-1.2l2.6-18.4l9.3-0.7
		l-2.5,18.4l18.7-1.3l0.2-1.5c1.4,1.4,3.3,1.3,4.5,1.2l22-1.5l0.4,0l18.3-1.3l0.4-2.6l0.5,2.5l19.2-1.3l0,0l19.4-1.3
		c3.4-0.2,4.6-0.8,5.8-3.9c0.1-0.3,0.3-0.7,0.5-1.1l4.9-11.6c0.9-2,1.6-5.3,1.8-7l0-0.2C285.1,32.8,285.2,30.2,282.7,28.7z
		 M125.5,51.9l-9.3,0.7c1-7.4,1.2-8.3,1.3-9.2c0.1-1,0.3-2,1.5-10.5l9.3-0.7L125.5,51.9z M173.1,30.3l-9.3,0.6l0.2-1.4l9.3-0.6
		L173.1,30.3z M216,45.5l-9.7,0.7l0.2-1.2l9.7-0.7L216,45.5z M218.6,27.1l-9.7,0.7l0.2-1.5l9.7-0.7L218.6,27.1z M265.3,42.1
		l-11.8,0.8l-2.6,8.7l-2.9-15.3l2-1.4c0.5-0.4,1-0.7,1.4-1.1c0.4,0.7,1.2,1.4,2.4,2.1l11.7,5.5L265.3,42.1z"/>
	<path id="XMLID_90_" fill="#EB008B" d="M278.7,24.7l-12.1-6l0.1-0.6l11.6-0.8L283.4,0l-23.2,1.5c-3.3,0.2-4.6,0.8-5.8,3.9
		c-0.1,0.3-0.3,0.7-0.5,1.2l-1.1,2.6c-0.1-1.9-0.6-3.4-1.7-4.5c-0.9-1-2.6-2.1-5.4-1.9l-25.3,1.8l0-0.2l-21.8,1.4
		c-3.4,0.2-4.6,0.8-5.8,3.9c-0.1,0.3-0.3,0.7-0.5,1.1l-3.7,8.6l1.8-13.1l-18.8,1.3l0,0.1L153.5,9c-3.4,0.2-4.6,0.8-5.8,3.9
		c-0.1,0.3-0.3,0.7-0.5,1.1l-3.6,8.3l1.8-12.9l-18.8,1.3l0,0.4l-18,1.2c-3.7,0.3-4.8,1-6.1,4.3c-0.1,0.3-0.2,0.6-0.3,0.8l-3.4,7.9
		l0.9-6.7c0.1-0.9,0.4-2.6-0.9-4c-1.3-1.4-3.1-1.3-3.9-1.2l-21.5,1.5c0,0,0,0,0,0c-3.7,0.3-4.5,1.5-5.9,4.8l-4,9.2L66.1,10
		c0.3-2-0.3-4.2-1.7-5.7c-1.3-1.4-3.2-2.1-5.2-2l-57,4L0,24.4l24.9-1.7L18.1,72L38,70.6l2.3-16l17-12.4c1.4-1,2.5-2,3.3-3.1
		l-4.2,30.2L93,66.8l0.5-3.5c0.2,0.4,0.5,0.7,0.8,1c1.4,1.4,3.4,2.1,5.6,2l19.3-1.4l0.5,0l16.5-1.2l1.7-0.1l17-1.2l2.6-18.4l9.3-0.7
		l-2.5,18.4l18.7-1.3l0.2-1.5c1.4,1.4,3.3,1.3,4.5,1.2l22-1.5l0.4,0l18.3-1.3l0.4-2.6l0.5,2.5l19.2-1.3l0,0l19.4-1.3
		c3.4-0.2,4.6-0.8,5.8-3.9c0.1-0.3,0.3-0.7,0.5-1.1l4.9-11.6c0.9-2,1.6-5.3,1.8-7l0-0.2C281.1,28.8,281.2,26.2,278.7,24.7z
		 M121.5,47.9l-9.3,0.7c1-7.4,1.2-8.3,1.3-9.2c0.1-1,0.3-2,1.5-10.5l9.3-0.7L121.5,47.9z M169.1,26.3l-9.3,0.6l0.2-1.4l9.3-0.6
		L169.1,26.3z M212,41.5l-9.7,0.7l0.2-1.2l9.7-0.7L212,41.5z M214.6,23.1l-9.7,0.7l0.2-1.5l9.7-0.7L214.6,23.1z M261.3,38.1
		l-11.8,0.8l-2.6,8.7l-2.9-15.3l2-1.4c0.5-0.4,1-0.7,1.4-1.1c0.4,0.7,1.2,1.4,2.4,2.1l11.7,5.5L261.3,38.1z"/>
	<g id="XMLID_9_">
		<path id="XMLID_77_" fill="#FFC10E" d="M30.1,7.4l29.3-2.1c3-0.2,3.9,2.5,3.7,4.2l-3,21.7c-0.6,4.6-1.6,6.5-4.5,8.5L37.5,52.9
			l-2.1,14.9l-13.7,1L30.1,7.4z M46.2,33.2l2.1-15.3l-6,0.4l-2.8,19.7L46.2,33.2z"/>
		<path id="XMLID_67_" fill="#FFC10E" d="M95.2,16.4c1.6-0.1,1.8,0.2,1.5,1.7l-6.4,45.8l-12.5,0.9l1.5-10.9l-5.4,0.4l-1.5,10.9
			L60,66l4-28.6c0.2-1.5,0.7-3.1,1.2-4.7l5.1-11.8c1.2-3,1.1-2.9,3.6-3L95.2,16.4z M80.8,43l2.1-15l-5.4,0.4l-2.1,15L80.8,43z"/>
		<path id="XMLID_58_" fill="#FFC10E" d="M125.8,14.2l-3.3,11L112.2,26c-3,21.6-0.6,4.3-3.6,25.9l12.2-0.9l-3.4,11l-17.8,1.2
			c-3.1,0.2-4.6-2-4.2-5.3l3.2-22.9c0.3-1.9,0.7-3.1,1.4-4.8l5-11.6c1.2-3,0.8-3,3.8-3.2L125.8,14.2z"/>
		<path id="XMLID_54_" fill="#FFC10E" d="M129.3,13.6l12.5-0.9l-6.7,48l-12.5,0.9L129.3,13.6z"/>
		<path id="XMLID_50_" fill="#FFC10E" d="M165,40.5l-10.4,0.7l-2.6,18.4l-12.5,0.9l3.9-28.7c0.2-1.8,0.6-3,1.3-4.8l5.1-11.6
			c1.3-3,0.8-3,3.7-3.2l17.3-1.2l-3.3,11.1l-10.4,0.7l-1.1,7.6l12.2-0.9L165,40.5z"/>
		<path id="XMLID_84_" fill="#FFC10E" d="M174.3,10.5l12.5-0.9l-6.7,48l-12.5,0.9L174.3,10.5z"/>
		<path id="XMLID_135_" fill="#FFC10E" d="M216.1,7.7l-3.3,11l-10.4,0.7l-1.1,7.7l12.3-0.9l-3.4,11.1L199.8,38l-1.1,7.4l12.3-0.9
			l-3.3,11.1l-20.3,1.4c-2.3,0.2-2.6-0.1-2.4-2.4l3.7-26.2c0.2-1.9,0.6-3.1,1.3-4.8l5-11.7c1.3-3,0.8-3,3.7-3.2L216.1,7.7z"/>
		<path id="XMLID_104_" fill="#FFC10E" d="M219.8,7.6c9.6-0.7,16.6-1.2,26-1.8c2.6-0.2,4.3,1.3,3.8,5l-1.5,10.3
			c-0.4,3.9-1.2,5.3-4,7.4l-3.6,2.5l4.3,22.1L231.6,54l-3.1-14.3l-0.9,0.7l-2,14.1l-12.5,0.9L219.8,7.6z M235.6,22.5l0.7-5.3
			l-5.6,0.4l-1.3,9.4L235.6,22.5z"/>
		<path id="XMLID_169_" fill="#FFC10E" d="M279.2,3.3l-3.3,11L264,15.2l-0.8,5.2l13.9,6.9c0.9,0.5,0.9,1.4,0.8,3.4
			c-0.2,1.4-0.8,4.4-1.6,6.1l-5,11.6c-1.3,3-0.8,3-3.7,3.2l-19.2,1.3l3.3-11L264,41l0.8-5.4l-13.5-6.2c-1.9-1.2-1.7-1.3-1.1-4.3
			c0.3-1.2,0.8-4.2,1.4-5.6l5.1-11.6c1.3-2.9,0.8-3,3.7-3.2L279.2,3.3z"/>
	</g>
	<g id="XMLID_45_">
		<path id="XMLID_46_" fill="#FFFFFF" d="M4.3,11.8l0.8-2.7l6.2-0.4l-0.8,2.7l-1.4,0.1l-1.3,9.1l-3.1,0.2l1.3-9.1L4.3,11.8z"/>
		<path id="XMLID_102_" fill="#FFFFFF" d="M12,8.6L15,8.3l-0.6,4.5l1.4-0.1l0.6-4.5L19.5,8l-1.7,11.8l-3.1,0.2l0.6-4.6L14,15.6
			l-0.6,4.6l-3.1,0.2L12,8.6z"/>
		<path id="XMLID_107_" fill="#FFFFFF" d="M26.8,7.5L26,10.2l-2.6,0.2l-0.3,1.9l3-0.2l-0.8,2.7L22.8,15l-0.3,1.8l3-0.2l-0.8,2.7
			l-5,0.3c-0.6,0-0.6,0-0.6-0.6l0.9-6.4c0.1-0.5,0.1-0.8,0.3-1.2l1.2-2.9c0.3-0.7,0.2-0.7,0.9-0.8L26.8,7.5z"/>
	</g>
	<g id="XMLID_8_">
		<path id="XMLID_65_" fill="#FFFFFF" d="M59.8,7.9c0.4,0,0.4,0.1,0.5,0.2c0.2,0.2,0.3,0.7,0.3,1l0,0l0,0l-3,21.7
			c-0.6,4.2-1.3,5.2-3.4,6.7l0,0l0,0L35.9,50.7L35,51.4l-0.2,1.1L33,65.3l-8.4,0.6l7.8-56l27.2-1.9C59.7,7.9,59.7,7.9,59.8,7.9
			 M36.1,43.9l5-3.7l6.7-4.9l0.9-0.7l0.2-1.1l2.1-15.3l0.4-3.2l-3.2,0.2l-6,0.4L40,15.9L39.7,18l-2.8,19.7L36.1,43.9 M59.8,5.3
			c-0.1,0-0.2,0-0.3,0L30.1,7.4l-8.5,61.4l13.7-1l2.1-14.9l18.1-13.2c2.9-2,3.9-3.9,4.5-8.5l3-21.7C63.4,7.9,62.5,5.3,59.8,5.3
			L59.8,5.3z M48.3,17.9l-2.1,15.3l-6.7,4.9l2.8-19.7L48.3,17.9L48.3,17.9z"/>
		<path id="XMLID_40_" fill="#FFFFFF" d="M93.9,19.1L88,61.4l-7.1,0.5l1.1-7.7l0.4-3.2l-3.2,0.2l-5.4,0.4l-2.1,0.1l-0.3,2.1
			l-1.2,8.8L63,63.2l3.5-25.4l0,0l0,0c0.1-1.3,0.6-2.8,1.1-4L72.7,22l0,0l0,0l0.1-0.2c0.2-0.4,0.4-0.9,0.5-1.2c0.2,0,0.4,0,0.5,0
			l0.2,0L93.9,19.1 M72.4,46.2l3.2-0.2l5.4-0.4l2.1-0.1l0.3-2.1l2.1-15l0.4-3.2l-3.2,0.2l-5.4,0.4l-2.1,0.1L74.9,28l-2.1,15
			L72.4,46.2 M95.7,16.4c-0.1,0-0.3,0-0.5,0l-21.3,1.5c-2.4,0.2-2.4,0.1-3.6,3l-5.1,11.8c-0.6,1.6-1.1,3.2-1.2,4.7L60,66l12.5-0.9
			l1.5-10.9l5.4-0.4l-1.5,10.9l12.5-0.9l6.4-45.8C96.9,16.8,96.8,16.4,95.7,16.4L95.7,16.4z M82.9,28l-2.1,15l-5.4,0.4l2.1-15
			L82.9,28L82.9,28z"/>
		<path id="XMLID_39_" fill="#FFFFFF" d="M122.2,17.1l-1.7,5.7l-8.5,0.6l-2.1,0.1l-0.3,2.1c-1.5,10.8-1.7,11.9-1.8,13
			c-0.1,1.1-0.3,2.2-1.8,12.9l-0.5,3.2l3.2-0.2l8.4-0.6l-1.8,5.6l-16,1.1c-0.1,0-0.2,0-0.2,0c-0.4,0-0.7-0.1-0.9-0.3
			c-0.2-0.3-0.5-1-0.3-2.1l3.2-22.8c0.3-1.7,0.6-2.7,1.2-4.2l5-11.6l0,0l0,0c0.1-0.4,0.3-0.7,0.4-1c0.1-0.2,0.2-0.4,0.2-0.6
			c0.3,0,0.7-0.1,0.9-0.1L122.2,17.1 M125.8,14.2l-17.1,1.1c-3,0.2-2.6,0.3-3.8,3.2l-5,11.6c-0.8,1.7-1.1,3-1.4,4.8l-3.2,22.9
			c-0.4,3.1,1,5.3,3.8,5.3c0.1,0,0.3,0,0.4,0l17.8-1.2l3.4-11l-12.2,0.9c3-21.6,0.6-4.3,3.6-25.9l10.3-0.7L125.8,14.2L125.8,14.2z"
			/>
		<path id="XMLID_20_" fill="#FFFFFF" d="M138.8,15.6l-6,42.7l-7.1,0.5l5.9-42.7L138.8,15.6 M141.8,12.8l-12.5,0.9l-6.6,48l12.5-0.9
			L141.8,12.8L141.8,12.8z"/>
		<path id="XMLID_18_" fill="#FFFFFF" d="M167.4,13.7l-1.7,5.7l-8.6,0.6l-2.1,0.1l-0.3,2.1l-1.1,7.6l-0.5,3.2l3.3-0.2l8.4-0.6
			l-1.7,5.7l-8.6,0.6l-2.1,0.1l-0.3,2.1l-2.3,16.3l-7.1,0.5l3.5-25.6c0.2-1.5,0.5-2.5,1.1-4.1l5.1-11.7c0.2-0.5,0.4-0.9,0.5-1.3
			c0-0.1,0.1-0.2,0.1-0.3c0.3,0,0.6-0.1,0.8-0.1L167.4,13.7 M171,10.8L153.7,12c-3,0.2-2.4,0.3-3.7,3.2l-5.1,11.6
			c-0.7,1.8-1.1,3.1-1.3,4.8l-3.9,28.7l12.5-0.9l2.6-18.4l10.4-0.7l3.3-11.1l-12.2,0.9l1.1-7.6l10.4-0.7L171,10.8L171,10.8z"/>
		<path id="XMLID_16_" fill="#FFFFFF" d="M183.8,12.5l-6,42.7l-7.1,0.5l5.9-42.7L183.8,12.5 M186.9,9.6l-12.5,0.9l-6.6,48l12.5-0.9
			L186.9,9.6L186.9,9.6z"/>
		<path id="XMLID_11_" fill="#FFFFFF" d="M212.5,10.5l-1.7,5.7l-8.6,0.6l-2.1,0.1l-0.3,2.1l-1.1,7.7l-0.5,3.2l3.2-0.2l8.5-0.6
			l-1.8,5.7l-8.6,0.6l-2.1,0.1l-0.3,2.1l-1.1,7.4l-0.5,3.2l3.2-0.2l8.5-0.6l-1.7,5.7l-18,1.3l3.6-25.5l0,0l0,0
			c0.2-1.6,0.5-2.6,1.1-4.1l5-11.7c0.2-0.5,0.4-0.9,0.5-1.3c0-0.1,0.1-0.2,0.1-0.3c0.3,0,0.6-0.1,0.8-0.1L212.5,10.5 M216.1,7.7
			l-17.3,1.1c-3,0.2-2.4,0.3-3.7,3.2l-5,11.7c-0.8,1.7-1.1,3-1.3,4.8L185,54.7c-0.2,1.9,0,2.4,1.4,2.4c0.3,0,0.6,0,0.9,0l20.3-1.4
			l3.3-11.1l-12.3,0.9l1.1-7.4l10.4-0.7l3.4-11.1l-12.3,0.9l1.1-7.7l10.4-0.7L216.1,7.7L216.1,7.7z"/>
		<path id="XMLID_10_" fill="#FFFFFF" d="M246.3,8.4c0.4,0,0.6,0.1,0.6,0.1c0.1,0.1,0.3,0.7,0.1,1.9l-1.5,10.3l0,0l0,0
			c-0.4,3.4-0.9,4-2.9,5.5l-3.6,2.5l-1.4,1l0.3,1.7l3.7,19.2l-7.9,0.6l-2.6-12.1l-0.9-4l-3.3,2.4l-0.9,0.7l-0.9,0.7L225,40l-1.7,12
			l-7.1,0.5l5.9-42.4L246,8.4C246.1,8.4,246.2,8.4,246.3,8.4 M226.1,32.7l5-3.6l6.2-4.5l0.9-0.7l0.1-1.1l0.7-5.3l0.4-3.2l-3.2,0.2
			l-5.6,0.4l-2.1,0.1l-0.3,2.1l-1.3,9.4L226.1,32.7 M246.3,5.7c-0.1,0-0.3,0-0.4,0c-9.4,0.7-16.5,1.2-26,1.8l-6.6,47.7l12.5-0.9
			l2-14.1l0.9-0.7l3.1,14.3l13.2-0.9L240.5,31l3.6-2.5c2.8-2,3.6-3.5,4-7.4l1.5-10.3C250.1,7.2,248.7,5.7,246.3,5.7L246.3,5.7z
			 M236.3,17.2l-0.7,5.3l-6.2,4.5l1.3-9.4L236.3,17.2L236.3,17.2z"/>
		<path id="XMLID_98_" fill="#FFFFFF" d="M275.6,6.2l-1.7,5.6l-10.1,0.7l-2.1,0.1l-0.3,2.1l-0.8,5.2l-0.3,1.9l1.7,0.8l13.2,6.6
			c0,0.3,0,0.8-0.1,1.1c-0.2,1.3-0.8,3.9-1.4,5.2l0,0l0,0l-5,11.6c-0.2,0.5-0.4,0.9-0.5,1.3c0,0.1-0.1,0.2-0.1,0.3
			c-0.3,0-0.6,0.1-0.8,0.1l-15.4,1l1.7-5.7l10.4-0.7l2.1-0.1l0.3-2.1l0.8-5.4l0.3-1.9l-1.8-0.8l-13.3-6.2c0,0,0,0,0,0
			c0-0.2,0.1-0.4,0.1-0.6c0-0.2,0.1-0.5,0.2-0.8l0.1-0.4c0.3-1.2,0.8-3.7,1.2-4.7l5-11.6c0.2-0.5,0.4-1,0.6-1.3
			c0-0.1,0.1-0.2,0.1-0.3c0.3,0,0.7-0.1,0.8-0.1L275.6,6.2 M279.2,3.3l-18.8,1.2c-3,0.2-2.4,0.3-3.7,3.2l-5.1,11.6
			c-0.6,1.4-1.2,4.4-1.4,5.6c-0.6,3-0.8,3.1,1.1,4.3l13.5,6.2L264,41l-12.2,0.9l-3.3,11l19.2-1.3c3-0.2,2.4-0.3,3.7-3.2l5-11.6
			c0.8-1.6,1.4-4.7,1.6-6.1c0.1-1.9,0.2-2.8-0.8-3.4l-13.9-6.9l0.8-5.2l11.9-0.8L279.2,3.3L279.2,3.3z"/>
	</g>
</g>
</svg>
