<?xml version="1.0" encoding="utf-8"?>
<!-- Generator: Adobe Illustrator 19.0.0, SVG Export Plug-In . SVG Version: 6.00 Build 0)  -->
<!DOCTYPE svg PUBLIC "-//W3C//DTD SVG 1.1//EN" "http://www.w3.org/Graphics/SVG/1.1/DTD/svg11.dtd">
<svg version="1.1" id="Layer_1" xmlns="http://www.w3.org/2000/svg" xmlns:xlink="http://www.w3.org/1999/xlink" x="0px" y="0px"
	 viewBox="0 0 330 75.2" enable-background="new 0 0 330 75.2" xml:space="preserve">
<g id="XMLID_111_">
	<polygon id="XMLID_1_" fill="#363639" points="44.3,0 4,0 0,20.5 5,25.5 49.3,25.5 49.3,5 	"/>
	<g id="XMLID_39_">
		<path id="XMLID_70_" fill="#363639" d="M118,15.9c-1.2-1.6-4.1-3.9-5-5c-1.4-1.7-3.5-1.7-4.4-1.7H83.9c0,0,0,0,0,0
			c-4.3,0-5.3,1.3-7.1,5L70,27.4l-0.1,0.2c-0.7,1.7-1.6,3.9-2,6.1l-7.7,36.5l5,5h42l11.6-54.5C118.9,19.6,119.4,17.6,118,15.9z"/>
		<path id="XMLID_71_" fill="#363639" d="M135.2,33.5h11.4l7.4-19.3l-5-5l-24.7-0.1c-4.3,0-5.6,0.8-7.3,4.4
			c-0.1,0.3-0.3,0.6-0.4,0.9L110,27.3c-1.1,2.1-1.7,3.8-2.3,6.3l-5.5,26c-0.6,3.1,0,5.9,1.6,7.8c0.9,1.1,4.4,4.2,5,5
			c1.5,1.8,3.7,2.7,6.2,2.7h22.8l7.5-19.3l-5-5h-8.7c0.8-3.8,1-4.7,1.1-5.5C132.9,44.2,133.2,43.1,135.2,33.5z"/>
		<polygon id="XMLID_72_" fill="#363639" points="166.6,8.8 145,8.8 132.2,70.1 137.2,75.1 158.6,75.1 171.6,13.8 		"/>
		<polygon id="XMLID_73_" fill="#363639" points="218.3,8.8 196.7,8.8 183.8,70.1 188.8,75.1 210.3,75.1 223.3,13.8 		"/>
		<path id="XMLID_74_" fill="#363639" d="M78.9,7.6c-0.1-0.1-0.2-0.2-0.3-0.3l0,0l-0.4-0.4c0,0-0.1-0.1-0.1-0.1l-4.9-4.9
			C71.9,0.6,70.3,0,68.4,0H34.9L20.2,70.1l5,5h21.4l3.6-16.6l18.5-11.6c4.5-2.7,5.9-5.7,6.9-10.8l4.7-22.2
			C80.8,11.7,80.3,9.3,78.9,7.6z"/>
		<path id="XMLID_75_" fill="#363639" d="M205.8,13.9l-5-5h-25c-3.9,0-5.3,0.6-7,4c-0.2,0.4-0.4,0.8-0.6,1.2l-6.7,12.9
			c-1.2,2.3-1.7,4-2.2,6.2l-7.7,36.7l5,5h21.4l4.4-20.8H194l7.4-19.4l-2.5-2.5L205.8,13.9z"/>
		<path id="XMLID_76_" fill="#363639" d="M250.6,32.3l7-18.3l-5-5l-25-0.1c-3.9,0-5.3,0.6-7,4c-0.2,0.4-0.4,0.8-0.6,1.3l-6.7,13
			c-1.2,2.2-1.8,4-2.2,6.3L204.8,63c-0.2,1.2-0.7,3.5,0.8,5.3c1.1,1.3,4.2,4,5,5c1.5,1.8,3.7,1.8,5.1,1.8h25.7l7.4-19.4l-2.6-2.6
			l7-18.2L250.6,32.3z"/>
		<path id="XMLID_77_" fill="#363639" d="M292.7,16.7c-0.7-0.9-4.4-4.2-5-5c-1-1.2-2.8-2.6-6-2.6h-32.7l-12.9,61l5,5h21.4l0.2-0.9
			l0.9,0.9h22.1l-3.3-27.3l2.4-1.4c4.2-2.6,5.8-5,6.8-10.4l2.5-11.6C294.7,21.2,294.2,18.6,292.7,16.7z"/>
		<path id="XMLID_78_" fill="#363639" d="M322.7,41.8l-3.6-3.6c-0.3-0.5-0.8-1-1.4-1.4l-6-3.5h11.1L330,14l-5-5l-26.6-0.1
			c-3.8,0-5.3,0.6-6.9,4c-0.2,0.4-0.4,0.8-0.7,1.3L284,27.1c-0.8,1.6-1.6,4.2-2.2,6.5l-0.4,1.4c-0.7,2.4-1,4.3,0.6,6.2l0,0l0.1,0.1
			c0.2,0.3,0.5,0.5,0.8,0.8l4.2,4.2c0.4,0.5,1,1.1,1.8,1.6l5.3,3h-11.1l-7.4,19.3l5,5l27.1,0.1c3.9,0,5.3-0.6,7-4
			c0.2-0.4,0.4-0.8,0.6-1.3l6.6-12.9c1.2-2.2,2.3-6,2.6-7.8l0-0.2C325,46.7,325.5,43.8,322.7,41.8z"/>
	</g>
	
		<text id="XMLID_79_" transform="matrix(1 0 0 1 25.1655 66.6045)" fill="#00A651" stroke="#00A651" stroke-width="7" stroke-miterlimit="2" font-family="'RevengerStrongBB-Italic'" font-size="100px">Pacifiers</text>
	<polygon id="XMLID_80_" fill="#00A651" points="0,20.5 44.3,20.5 44.3,0 4,0 	"/>
	
		<text id="XMLID_81_" transform="matrix(1 0 0 1 4.2896 17.0928)" fill="#FFFFFF" font-family="'RevengerStrongBB-Italic'" font-size="24.6103px">the</text>
	<g id="XMLID_82_">
		<g id="XMLID_83_">
			<path id="XMLID_117_" fill="#FFFFFF" d="M26.3,65.1L39,5h29.4c0.7,0,1.2,0.2,1.6,0.7c0.5,0.6,0.6,1.5,0.4,2.1l-4.7,22.3
				c-0.9,4.4-1.8,5.9-4.6,7.5L40.7,50.4l-3.2,14.7H26.3z M43.1,39.3l10.8-6.8l3.8-18.1h-9.4L43.1,39.3z"/>
			<path id="XMLID_107_" fill="#EC008C" d="M68.4,6.5c0.2,0,0.4,0,0.4,0.1c0.2,0.2,0.2,0.6,0.2,0.8l0,0l0,0l-4.7,22.3
				c-0.9,4.2-1.7,5.2-3.9,6.5l0,0l0,0L40.5,48.8l-1.1,0.7l-0.3,1.2l-2.8,12.9h-8.2l12-57.1H68.4 M40.9,42.4l6-3.8l7.3-4.6l1.1-0.7
				l0.3-1.2l3.3-15.7l0.8-3.6h-3.7h-6.3h-2.4l-0.5,2.4l-4.3,20.3L40.9,42.4 M68.4,3.5H37.8L24.5,66.6h14.3l3.3-15.3l19.8-12.4
				c3.2-1.9,4.3-3.8,5.3-8.5l4.7-22.3C72.3,6.4,71.5,3.5,68.4,3.5L68.4,3.5z M55.9,15.8l-3.3,15.7l-7.3,4.6l4.3-20.3H55.9L55.9,15.8
				z"/>
		</g>
		<g id="XMLID_86_">
			<path id="XMLID_126_" fill="#FFFFFF" d="M86.8,65.1l2.6-12.3h-9.3l-2.6,12.3H66.3l6.4-30.5c0.3-1.7,1.1-3.6,1.7-5l6.8-13l0.1-0.2
				c0.5-1,1-2,1.2-2.1c0.1-0.1,0.9-0.1,1.3-0.1c0,0,25.1,0,25.2,0c0,0.1-10.8,50.9-10.8,50.9H86.8z M82.1,43.5h9.3l4.2-20h-9.3
				L82.1,43.5z"/>
			<path id="XMLID_121_" fill="#EC008C" d="M83.7,15.7l0.2,0l0.2,0H107L96.8,63.6h-8.2l1.8-8.7l0.8-3.6h-3.7h-6.2h-2.4l-0.5,2.4
				l-2.1,9.9h-8.2l6-28.7l0,0l0,0c0.3-1.5,1-3.2,1.6-4.5l6.8-13l0,0l0,0l0.1-0.2c0.2-0.5,0.5-1,0.7-1.3
				C83.5,15.7,83.6,15.7,83.7,15.7 M80.3,45H84h6.2h2.4l0.5-2.4l3.6-17l0.8-3.6h-3.7h-6.2h-2.4l-0.5,2.4l-3.6,17L80.3,45 M83.7,12.7
				c-2.3,0-2.3,0.1-3.8,3.2L73.1,29c-0.8,1.8-1.5,3.6-1.8,5.3l-6.8,32.3h14.3l2.6-12.3h6.2L85,66.6h14.3l11-51.8
				c0.4-1.7,0.2-2.1-1.6-2.1H84.2C84,12.7,83.9,12.7,83.7,12.7L83.7,12.7z M93.8,25l-3.6,17H84l3.6-17H93.8L93.8,25z"/>
		</g>
		<g id="XMLID_90_">
			<path id="XMLID_57_" fill="#FFFFFF" d="M110,65.1c-1.1,0-1.9-0.3-2.4-0.9c-0.6-0.8-0.8-2.1-0.5-3.7l5.5-25.9c0.5-2,1-3.3,1.9-5
				l6.6-12.9c0.2-0.4,0.4-0.8,0.5-1.1c0.3-0.6,0.6-1.3,0.7-1.4c0.2-0.1,1.3-0.1,2-0.1l17.4,0.1l-3.6,9.3h-12l-0.3,1.2
				c-2.6,12.2-2.9,13.4-3.1,14.7c-0.2,1.2-0.5,2.4-3.1,14.6l-0.4,1.8H133l-3.6,9.3H110z"/>
			<path id="XMLID_54_" fill="#EC008C" d="M124.3,15.6l15.3,0.1l-2.4,6.3h-9.7h-2.4l-0.5,2.4c-2.6,12.2-2.9,13.5-3.1,14.7
				c-0.2,1.2-0.5,2.4-3.1,14.6l-0.8,3.6h3.7h9.6l-2.5,6.3H110c-0.4,0-1-0.1-1.2-0.4c-0.3-0.3-0.5-1.1-0.2-2.4L114,35
				c0.5-1.9,0.9-3.1,1.7-4.7l6.6-12.9l0,0l0,0c0.2-0.4,0.4-0.8,0.5-1.1c0.1-0.2,0.2-0.4,0.3-0.6C123.5,15.6,124,15.6,124.3,15.6
				 M124.3,12.6c-3.4,0-3,0.1-4.6,3.4l-6.6,12.9c-1,1.9-1.5,3.3-2,5.4l-5.5,25.9c-0.7,3.7,0.8,6.4,4.4,6.4h20.4l4.8-12.3h-14
				c5.2-24.4,1-4.9,6.2-29.3h11.8l4.7-12.3L124.3,12.6L124.3,12.6z"/>
		</g>
		<g id="XMLID_93_">
			<polygon id="XMLID_52_" fill="#FFFFFF" points="138.3,65.1 149.1,13.8 160.4,13.8 149.5,65.1 			"/>
			<path id="XMLID_49_" fill="#EC008C" d="M158.6,15.3l-10.2,48.3h-8.2l10.1-48.3H158.6 M162.3,12.3h-14.4l-11.4,54.3h14.3
				L162.3,12.3L162.3,12.3z"/>
		</g>
		<g id="XMLID_108_">
			<path id="XMLID_47_" fill="#FFFFFF" d="M157.8,65.1l6.4-30.7c0.4-1.9,0.8-3.1,1.8-5l6.7-12.9c0.3-0.5,0.5-1,0.7-1.4
				c0.2-0.5,0.5-1,0.6-1.1c0.2-0.1,1.2-0.1,1.9-0.1h17.7l-3.6,9.4H178l-2.6,11.6h13.7l-3.6,9.4h-12.1L169,65.1H157.8z"/>
			<path id="XMLID_44_" fill="#EC008C" d="M191.4,15.4l-2.4,6.4h-9.8h-2.4l-0.5,2.4l-1.9,8.6l-0.8,3.6h3.7h9.7l-2.4,6.4h-9.8h-2.4
				l-0.5,2.4l-3.9,18.4h-8.2l6.1-28.9c0.3-1.7,0.7-2.8,1.6-4.6l6.7-12.9c0.3-0.6,0.5-1,0.7-1.4c0.1-0.1,0.1-0.2,0.2-0.3
				c0.3,0,0.7,0,1,0H191.4 M195.8,12.4h-19.9c-3.4,0-2.8,0.1-4.5,3.4l-6.7,12.9c-1,2-1.5,3.4-1.9,5.4L156,66.6h14.3l4.4-20.8h11.9
				l4.7-12.4h-14l1.9-8.6h11.9L195.8,12.4L195.8,12.4z"/>
		</g>
		<g id="XMLID_133_">
			<polygon id="XMLID_42_" fill="#FFFFFF" points="190,65.1 200.8,13.8 212.1,13.8 201.2,65.1 			"/>
			<path id="XMLID_37_" fill="#EC008C" d="M210.3,15.3L200,63.6h-8.2L202,15.3H210.3 M214,12.3h-14.4l-11.4,54.3h14.3L214,12.3
				L214,12.3z"/>
		</g>
		<g id="XMLID_140_">
			<path id="XMLID_97_" fill="#FFFFFF" d="M210.8,65.1c-0.6,0-1,0-1.2,0c0-0.2,0.1-0.5,0.2-1.1l6.3-29.6c0.4-2,0.8-3.2,1.8-5l6.7-13
				c0.3-0.5,0.5-1,0.7-1.4c0.2-0.5,0.5-1,0.6-1.1c0.2-0.1,1.2-0.1,1.9-0.1l17.7,0.1l-3.6,9.3h-12.1l-2.6,11.7H241l-3.6,9.4h-12.1
				l-2.4,11.4h13.8l-3.6,9.4H210.8z"/>
			<path id="XMLID_41_" fill="#EC008C" d="M227.7,15.3l15.6,0.1l-2.4,6.3H231h-2.4l-0.5,2.4l-1.9,8.7l-0.8,3.6h3.7h9.7l-2.5,6.4
				h-9.8H224l-0.5,2.4l-1.8,8.4l-0.8,3.6h3.7h9.8l-2.4,6.4h-20.6l6.1-28.9l0,0l0,0c0.3-1.8,0.7-2.9,1.6-4.6l6.7-13
				c0.3-0.6,0.5-1,0.7-1.4c0.1-0.1,0.1-0.2,0.2-0.3C227,15.3,227.4,15.3,227.7,15.3 M227.7,12.3c-3.4,0-2.8,0.1-4.5,3.4l-6.7,13
				c-1,1.9-1.5,3.3-1.9,5.4l-6.3,29.6c-0.5,2.6-0.1,2.9,2.5,2.9h23.3l4.7-12.4h-14.1l1.8-8.4h11.9l4.8-12.4h-14.1l1.9-8.7h11.9
				l4.7-12.3L227.7,12.3L227.7,12.3z"/>
		</g>
		<g id="XMLID_151_">
			<path id="XMLID_136_" fill="#FFFFFF" d="M262.9,65.1l-2.5-17.6l-3.6,2.3l-3.3,15.3h-11.2l10.8-51h28.7c1,0,1.8,0.3,2.2,0.7
				c0.5,0.6,0.6,1.8,0.3,3.4L281.6,30c-0.7,4.1-1.5,5.3-4.5,7.1l-5.1,3.1l3,24.9H262.9z M259.1,38.6l10.9-6.8l1.7-8.4h-9.5
				L259.1,38.6z"/>
			<path id="XMLID_129_" fill="#EC008C" d="M281.7,15.6c0.7,0,1,0.2,1,0.2c0.1,0.1,0.3,0.8,0,2.2l-2.5,11.7l0,0l0,0
				c-0.7,3.8-1.3,4.6-3.8,6.1l-4.3,2.6l-1.7,1l0.2,1.9l2.7,22.2h-9.1l-2-14l-0.7-4.6l-3.9,2.5l-1.1,0.7l-1.1,0.7l-0.3,1.2l-2.9,13.5
				h-8.2l10.1-48H281.7 M256.9,41.7l5.9-3.7l7.4-4.6l1.1-0.7l0.3-1.3l1.2-6l0.7-3.6h-3.7h-6.4H261l-0.5,2.4l-2.2,10.6L256.9,41.7
				 M281.7,12.6c-10.8,0-18.9,0-29.9,0l-11.4,54h14.3l3.4-15.9l1.1-0.7l2.4,16.6h15.1L273.6,41l4.3-2.6c3.4-2.1,4.4-3.7,5.2-8.1
				l2.5-11.7C286.5,14.4,284.7,12.6,281.7,12.6L281.7,12.6z M269.9,24.9l-1.2,6l-7.4,4.6l2.2-10.6H269.9L269.9,24.9z"/>
		</g>
		<g id="XMLID_159_">
			<path id="XMLID_95_" fill="#FFFFFF" d="M283,65.1l3.6-9.3h14.2l1.8-8.4l-15.8-8.7c-0.3-0.2-0.8-0.6-0.9-0.7
				c0-0.2,0.2-0.9,0.4-1.7l0.2-0.9l0.1-0.4c0.4-1.4,1.2-4.3,1.9-5.6l6.7-12.9c0.3-0.6,0.5-1,0.7-1.4c0.2-0.5,0.5-1,0.6-1.1
				c0.2-0.1,1.3-0.1,1.9-0.1l19.4,0.1l-3.5,9.3h-13.9l-1.8,8.1l16.2,9.5c0.2,0.2,0.2,0.6-0.1,2.4c-0.3,1.5-1.3,4.7-2.1,6.3L306,62.6
				c-0.3,0.5-0.5,1-0.7,1.4c-0.2,0.5-0.5,1-0.6,1.1c-0.2,0.1-1.2,0.1-1.9,0.1L283,65.1z"/>
			<path id="XMLID_63_" fill="#EC008C" d="M298.4,15.4l17.3,0.1l-2.4,6.3h-11.6h-2.4l-0.5,2.4l-1.3,5.9l-0.5,2.1l1.9,1.1l14.6,8.6
				c0,0.4-0.1,0.9-0.1,1.2c-0.3,1.4-1.2,4.4-2,5.8l0,0l0,0l-6.6,12.9c-0.3,0.6-0.5,1-0.7,1.4c-0.1,0.1-0.1,0.2-0.2,0.3
				c-0.3,0-0.7,0-1,0l-17.7-0.1l2.4-6.3h11.9h2.4l0.5-2.4l1.3-6.1l0.5-2.2l-2-1.1l-14.7-8.1c0,0,0,0-0.1,0c0.1-0.2,0.1-0.5,0.2-0.7
				c0.1-0.3,0.2-0.6,0.2-0.9l0.1-0.4c0.4-1.3,1.2-4.2,1.8-5.3l6.7-12.9c0.3-0.6,0.5-1.1,0.7-1.5c0-0.1,0.1-0.2,0.2-0.3
				C297.8,15.4,298.2,15.4,298.4,15.4 M298.4,12.4c-3.4,0-2.8,0.2-4.5,3.4l-6.7,12.9c-0.8,1.6-1.7,4.9-2.1,6.3
				c-0.9,3.4-1.2,3.5,0.9,5l14.9,8.2l-1.3,6.1h-14l-4.7,12.3l22,0.1c3.4,0,2.8-0.1,4.5-3.4l6.6-12.9c1-1.8,2-5.2,2.3-6.8
				c0.3-2.2,0.4-3.2-0.6-3.9l-15.3-9l1.3-5.9h13.7l4.6-12.3L298.4,12.4L298.4,12.4z"/>
		</g>
	</g>
</g>
</svg>
