<?xml version="1.0" encoding="utf-8"?>
<!-- Generator: Adobe Illustrator 19.0.0, SVG Export Plug-In . SVG Version: 6.00 Build 0)  -->
<!DOCTYPE svg PUBLIC "-//W3C//DTD SVG 1.1//EN" "http://www.w3.org/Graphics/SVG/1.1/DTD/svg11.dtd">
<svg version="1.1" id="Layer_3" xmlns="http://www.w3.org/2000/svg" xmlns:xlink="http://www.w3.org/1999/xlink" x="0px" y="0px"
	 viewBox="-234 263.8 330 75.2" enable-background="new -234 263.8 330 75.2" xml:space="preserve">
<polygon id="XMLID_14_" fill="#363639" points="-189.7,263.8 -230,263.8 -234,284.3 -229,289.3 -184.7,289.3 -184.7,268.8 "/>
<g id="XMLID_2_">
	<path id="XMLID_3_" fill="#363639" d="M-117,279.7c-1.2-1.6-4.1-3.9-5-5c-1.4-1.7-3.5-1.7-4.4-1.7h-24.7l0,0c-4.3,0-5.3,1.3-7.1,5
		l-6.8,13.2l-0.1,0.2c-0.7,1.7-1.6,3.9-2,6.1l-7.7,36.5l5,5h42l11.6-54.5C-116.1,283.5-115.6,281.5-117,279.7z"/>
	<path id="XMLID_5_" fill="#363639" d="M-99.8,297.3h11.4L-81,278l-5-5l-24.7-0.1c-4.3,0-5.6,0.8-7.3,4.4c-0.1,0.3-0.3,0.6-0.4,0.9
		l-6.6,12.9c-1.1,2.1-1.7,3.8-2.3,6.3l-5.5,26c-0.6,3.1,0,5.9,1.6,7.8c0.9,1.1,4.4,4.2,5,5c1.5,1.8,3.7,2.7,6.2,2.7h22.8l7.5-19.3
		l-5-5h-8.7c0.8-3.8,1-4.7,1.1-5.5C-102.1,308.1-101.8,306.9-99.8,297.3z"/>
	<polygon id="XMLID_6_" fill="#363639" points="-68.4,272.6 -90,272.6 -102.8,333.9 -97.8,338.9 -76.4,338.9 -63.4,277.6 	"/>
	<polygon id="XMLID_7_" fill="#363639" points="-16.7,272.6 -38.3,272.6 -51.2,333.9 -46.2,338.9 -24.7,338.9 -11.7,277.6 	"/>
	<path id="XMLID_21_" fill="#363639" d="M-155.1,271.4c-0.1-0.1-0.2-0.2-0.3-0.3l0,0l-0.4-0.4l-0.1-0.1l-4.9-4.9
		c-1.3-1.2-2.9-1.9-4.8-1.9h-33.5l-14.7,70.1l5,5h21.4l3.6-16.6l18.5-11.6c4.5-2.7,5.9-5.7,6.9-10.8l4.7-22.2
		C-153.2,275.6-153.7,273.1-155.1,271.4z"/>
	<path id="XMLID_8_" fill="#363639" d="M-29.2,277.7l-5-5h-25c-3.9,0-5.3,0.6-7,4c-0.2,0.4-0.4,0.8-0.6,1.2l-6.7,12.9
		c-1.2,2.3-1.7,4-2.2,6.2l-7.7,36.7l5,5H-57l4.4-20.8H-41l7.4-19.4l-2.5-2.5L-29.2,277.7z"/>
	<path id="XMLID_16_" fill="#363639" d="M15.6,296.1l7-18.3l-5-5l-25-0.1c-3.9,0-5.3,0.6-7,4c-0.2,0.4-0.4,0.8-0.6,1.3l-6.7,13
		c-1.2,2.2-1.8,4-2.2,6.3l-6.3,29.7c-0.2,1.2-0.7,3.5,0.8,5.3c1.1,1.3,4.2,4,5,5c1.5,1.8,3.7,1.8,5.1,1.8H6.4l7.4-19.4l-2.6-2.6
		l7-18.2L15.6,296.1z"/>
	<path id="XMLID_10_" fill="#363639" d="M57.7,280.5c-0.7-0.9-4.4-4.2-5-5c-1-1.2-2.8-2.6-6-2.6H14l-12.9,61l5,5h21.4l0.2-0.9
		l0.9,0.9h22.1l-3.3-27.3l2.4-1.4c4.2-2.6,5.8-5,6.8-10.4l2.5-11.6C59.7,285,59.2,282.4,57.7,280.5z"/>
	<path id="XMLID_12_" fill="#363639" d="M87.7,305.7l-3.6-3.6c-0.3-0.5-0.8-1-1.4-1.4l-6-3.5h11.1l7.2-19.3l-5-5l-26.6-0.1
		c-3.8,0-5.3,0.6-6.9,4c-0.2,0.4-0.4,0.8-0.7,1.3L49,291c-0.8,1.6-1.6,4.2-2.2,6.5l-0.4,1.4c-0.7,2.4-1,4.3,0.6,6.2l0,0l0.1,0.1
		c0.2,0.3,0.5,0.5,0.8,0.8l4.2,4.2c0.5,0.5,1,1.1,1.8,1.6l5.3,3H48.1l-7.4,19.3l5,5l27.1,0.1c3.9,0,5.3-0.6,7-4
		c0.2-0.4,0.4-0.8,0.6-1.3L87,321c1.2-2.2,2.3-6,2.6-7.8V313C90,310.5,90.5,307.6,87.7,305.7z"/>
</g>
<g enable-background="new    ">
	<path fill="#00A651" d="M-196.2,267.3h30.6c3.1,0,3.9,2.9,3.5,4.6l-4.7,22.3c-1,4.7-2.1,6.6-5.3,8.5l-19.8,12.4l-3.3,15.3h-14.3
		L-196.2,267.3z M-181.4,295.3l3.3-15.7h-6.3l-4.3,20.3L-181.4,295.3z"/>
	<path fill="#00A651" d="M-126.3,276.5c1.8,0,2,0.4,1.6,2.1l-11,51.8H-150l2.6-12.3h-6.2l-2.6,12.3h-14.3l6.8-32.3
		c0.3-1.7,1-3.5,1.8-5.3l6.8-13.1c1.6-3.3,1.5-3.2,4.3-3.2H-126.3z M-144.8,305.8l3.6-17h-6.2l-3.6,17H-144.8z"/>
	<path fill="#00A651" d="M-91.1,276.5l-4.7,12.3h-11.8c-5.2,24.4-1,4.9-6.2,29.3h14l-4.8,12.3H-125c-3.6,0-5.1-2.7-4.4-6.4l5.5-25.9
		c0.5-2.1,1-3.5,2-5.4l6.6-12.9c1.6-3.3,1.2-3.4,4.6-3.4L-91.1,276.5z"/>
	<path fill="#00A651" d="M-87.1,276.1h14.4l-11.5,54.3h-14.3L-87.1,276.1z"/>
	<path fill="#00A651" d="M-48.4,309.6h-11.9l-4.4,20.8H-79l6.8-32.5c0.4-2,0.9-3.4,1.9-5.4l6.7-12.9c1.7-3.3,1.1-3.4,4.5-3.4h19.9
		l-4.7,12.4h-11.9l-1.9,8.6h14L-48.4,309.6z"/>
	<path fill="#00A651" d="M-35.4,276.1H-21l-11.5,54.3h-14.3L-35.4,276.1z"/>
	<path fill="#00A651" d="M12.6,276.2l-4.7,12.3H-4l-1.9,8.7H8.2l-4.8,12.4H-8.5l-1.8,8.4H3.8l-4.7,12.4h-23.3c-2.6,0-3-0.3-2.5-2.9
		l6.3-29.6c0.4-2.1,0.9-3.5,1.9-5.4l6.7-13c1.7-3.3,1.1-3.4,4.5-3.4L12.6,276.2z"/>
	<path fill="#00A651" d="M16.8,276.4c11,0,19.1,0,29.9,0c3,0,4.8,1.8,3.9,6l-2.5,11.7c-0.8,4.4-1.8,6-5.2,8.1l-4.3,2.6l3.1,25.6
		H26.6l-2.4-16.6l-1.1,0.7l-3.4,15.9H5.4L16.8,276.4z M33.7,294.7l1.2-6h-6.4l-2.2,10.6L33.7,294.7z"/>
	<path fill="#00A651" d="M85,276.3l-4.6,12.3H66.7l-1.3,5.9l15.3,9c1,0.7,0.9,1.7,0.6,3.9c-0.3,1.6-1.3,5-2.3,6.8l-6.6,12.9
		c-1.7,3.3-1.1,3.4-4.5,3.4l-22-0.1l4.7-12.3h14l1.3-6.1L51,303.8c-2.1-1.5-1.8-1.6-0.9-5c0.4-1.4,1.3-4.7,2.1-6.3l6.7-12.9
		c1.7-3.2,1.1-3.4,4.5-3.4L85,276.3z"/>
</g>
<g enable-background="new    ">
	<path fill="none" stroke="#00A651" stroke-width="7" stroke-miterlimit="2" d="M-196.2,267.3h30.6c3.1,0,3.9,2.9,3.5,4.6l-4.7,22.3
		c-1,4.7-2.1,6.6-5.3,8.5l-19.8,12.4l-3.3,15.3h-14.3L-196.2,267.3z M-181.4,295.3l3.3-15.7h-6.3l-4.3,20.3L-181.4,295.3z"/>
	<path fill="none" stroke="#00A651" stroke-width="7" stroke-miterlimit="2" d="M-126.3,276.5c1.8,0,2,0.4,1.6,2.1l-11,51.8H-150
		l2.6-12.3h-6.2l-2.6,12.3h-14.3l6.8-32.3c0.3-1.7,1-3.5,1.8-5.3l6.8-13.1c1.6-3.3,1.5-3.2,4.3-3.2H-126.3z M-144.8,305.8l3.6-17
		h-6.2l-3.6,17H-144.8z"/>
	<path fill="none" stroke="#00A651" stroke-width="7" stroke-miterlimit="2" d="M-91.1,276.5l-4.7,12.3h-11.8
		c-5.2,24.4-1,4.9-6.2,29.3h14l-4.8,12.3H-125c-3.6,0-5.1-2.7-4.4-6.4l5.5-25.9c0.5-2.1,1-3.5,2-5.4l6.6-12.9
		c1.6-3.3,1.2-3.4,4.6-3.4L-91.1,276.5z"/>
	<path fill="none" stroke="#00A651" stroke-width="7" stroke-miterlimit="2" d="M-87.1,276.1h14.4l-11.5,54.3h-14.3L-87.1,276.1z"/>
	<path fill="none" stroke="#00A651" stroke-width="7" stroke-miterlimit="2" d="M-48.4,309.6h-11.9l-4.4,20.8H-79l6.8-32.5
		c0.4-2,0.9-3.4,1.9-5.4l6.7-12.9c1.7-3.3,1.1-3.4,4.5-3.4h19.9l-4.7,12.4h-11.9l-1.9,8.6h14L-48.4,309.6z"/>
	<path fill="none" stroke="#00A651" stroke-width="7" stroke-miterlimit="2" d="M-35.4,276.1H-21l-11.5,54.3h-14.3L-35.4,276.1z"/>
	<path fill="none" stroke="#00A651" stroke-width="7" stroke-miterlimit="2" d="M12.6,276.2l-4.7,12.3H-4l-1.9,8.7H8.2l-4.8,12.4
		H-8.5l-1.8,8.4H3.8l-4.7,12.4h-23.3c-2.6,0-3-0.3-2.5-2.9l6.3-29.6c0.4-2.1,0.9-3.5,1.9-5.4l6.7-13c1.7-3.3,1.1-3.4,4.5-3.4
		L12.6,276.2z"/>
	<path fill="none" stroke="#00A651" stroke-width="7" stroke-miterlimit="2" d="M16.8,276.4c11,0,19.1,0,29.9,0c3,0,4.8,1.8,3.9,6
		l-2.5,11.7c-0.8,4.4-1.8,6-5.2,8.1l-4.3,2.6l3.1,25.6H26.6l-2.4-16.6l-1.1,0.7l-3.4,15.9H5.4L16.8,276.4z M33.7,294.7l1.2-6h-6.4
		l-2.2,10.6L33.7,294.7z"/>
	<path fill="none" stroke="#00A651" stroke-width="7" stroke-miterlimit="2" d="M85,276.3l-4.6,12.3H66.7l-1.3,5.9l15.3,9
		c1,0.7,0.9,1.7,0.6,3.9c-0.3,1.6-1.3,5-2.3,6.8l-6.6,12.9c-1.7,3.3-1.1,3.4-4.5,3.4l-22-0.1l4.7-12.3h14l1.3-6.1L51,303.8
		c-2.1-1.5-1.8-1.6-0.9-5c0.4-1.4,1.3-4.7,2.1-6.3l6.7-12.9c1.7-3.2,1.1-3.4,4.5-3.4L85,276.3z"/>
</g>
<polygon id="XMLID_11_" fill="#00A651" points="-234,284.3 -189.7,284.3 -189.7,263.8 -230,263.8 "/>
<g enable-background="new    ">
	<path fill="#FFFFFF" d="M-228.1,270.6l1.2-3.1h7.1l-1.2,3.1h-1.6l-2.2,10.3h-3.5l2.2-10.3H-228.1z"/>
	<path fill="#FFFFFF" d="M-219.1,267.6h3.5l-1.1,5.1h1.6l1.1-5.1h3.5l-2.8,13.4h-3.5l1.1-5.2h-1.6l-1.1,5.2h-3.5L-219.1,267.6z"/>
	<path fill="#FFFFFF" d="M-202.1,267.6l-1.2,3h-2.9l-0.5,2.1h3.5l-1.2,3.1h-2.9l-0.4,2.1h3.5l-1.2,3.1h-5.7c-0.6,0-0.7-0.1-0.6-0.7
		l1.6-7.3c0.1-0.5,0.2-0.9,0.5-1.3l1.6-3.2c0.4-0.8,0.3-0.8,1.1-0.8L-202.1,267.6z"/>
</g>
<g id="XMLID_4_">
	<g id="XMLID_9_">
		<path id="XMLID_110_" fill="#8DC63F" d="M-207.7,328.9l12.7-60.1h29.4c0.7,0,1.2,0.2,1.6,0.7c0.5,0.6,0.6,1.5,0.4,2.1l-4.7,22.3
			c-0.9,4.4-1.8,5.9-4.6,7.5l-20.4,12.8l-3.2,14.7H-207.7z M-190.9,303.1l10.8-6.8l3.8-18.1h-9.4L-190.9,303.1z"/>
		<path id="XMLID_53_" fill="#FFFFFF" d="M-165.6,270.3c0.2,0,0.4,0,0.4,0.1c0.2,0.2,0.2,0.6,0.2,0.8l0,0l0,0l-4.7,22.3
			c-0.9,4.2-1.7,5.2-3.9,6.5l0,0l0,0l-19.9,12.6l-1.1,0.7l-0.3,1.2l-2.8,12.9h-8.2l12-57.1H-165.6 M-193.1,306.3l6-3.8l7.3-4.6
			l1.1-0.7l0.3-1.2l3.3-15.7l0.8-3.6h-3.7h-6.3h-2.4l-0.5,2.4l-4.3,20.3L-193.1,306.3 M-165.6,267.3h-30.6l-13.3,63.1h14.3l3.3-15.3
			l19.8-12.4c3.2-1.9,4.3-3.8,5.3-8.5l4.7-22.3C-161.7,270.2-162.5,267.3-165.6,267.3L-165.6,267.3z M-178.1,279.6l-3.3,15.7
			l-7.3,4.6l4.3-20.3H-178.1L-178.1,279.6z"/>
	</g>
	<g id="XMLID_26_">
		<path id="XMLID_129_" fill="#8DC63F" d="M-147.2,328.9l2.6-12.3h-9.3l-2.6,12.3h-11.2l6.4-30.5c0.3-1.7,1.1-3.6,1.7-5l6.8-13
			l0.1-0.2c0.5-1,1-2,1.2-2.1c0.1-0.1,0.9-0.1,1.3-0.1c0,0,25.1,0,25.2,0c0,0.1-10.8,50.9-10.8,50.9H-147.2z M-151.9,307.3h9.3
			l4.2-20h-9.3L-151.9,307.3z"/>
		<path id="XMLID_116_" fill="#FFFFFF" d="M-150.3,279.5h0.2h0.2h22.9l-10.2,47.9h-8.2l1.8-8.7l0.8-3.6h-3.7h-6.2h-2.4l-0.5,2.4
			l-2.1,9.9h-8.2l6-28.7l0,0l0,0c0.3-1.5,1-3.2,1.6-4.5l6.8-13l0,0l0,0l0.1-0.2c0.2-0.5,0.5-1,0.7-1.3
			C-150.5,279.5-150.4,279.5-150.3,279.5 M-153.7,308.8h3.7h6.2h2.4l0.5-2.4l3.6-17l0.8-3.6h-3.7h-6.2h-2.4l-0.5,2.4l-3.6,17
			L-153.7,308.8 M-150.3,276.5c-2.3,0-2.3,0.1-3.8,3.2l-6.8,13.1c-0.8,1.8-1.5,3.6-1.8,5.3l-6.8,32.3h14.3l2.6-12.3h6.2l-2.6,12.3
			h14.3l11-51.8c0.4-1.7,0.2-2.1-1.6-2.1h-24.5C-150,276.5-150.1,276.5-150.3,276.5L-150.3,276.5z M-140.2,288.8l-3.6,17h-6.2
			l3.6-17H-140.2L-140.2,288.8z"/>
	</g>
	<g id="XMLID_38_">
		<path id="XMLID_109_" fill="#8DC63F" d="M-124,328.9c-1.1,0-1.9-0.3-2.4-0.9c-0.6-0.8-0.8-2.1-0.5-3.7l5.5-25.9c0.5-2,1-3.3,1.9-5
			l6.6-12.9c0.2-0.4,0.4-0.8,0.5-1.1c0.3-0.6,0.6-1.3,0.7-1.4c0.2-0.1,1.3-0.1,2-0.1l17.4,0.1l-3.6,9.3h-12l-0.3,1.2
			c-2.6,12.2-2.9,13.4-3.1,14.7c-0.2,1.2-0.5,2.4-3.1,14.6l-0.4,1.8h13.8l-3.6,9.3H-124z"/>
		<path id="XMLID_65_" fill="#FFFFFF" d="M-109.7,279.4l15.3,0.1l-2.4,6.3h-9.7h-2.4l-0.5,2.4c-2.6,12.2-2.9,13.5-3.1,14.7
			c-0.2,1.2-0.5,2.4-3.1,14.6l-0.8,3.6h3.7h9.6l-2.5,6.3H-124c-0.4,0-1-0.1-1.2-0.4c-0.3-0.3-0.5-1.1-0.2-2.4l5.4-25.8
			c0.5-1.9,0.9-3.1,1.7-4.7l6.6-12.9l0,0l0,0c0.2-0.4,0.4-0.8,0.5-1.1c0.1-0.2,0.2-0.4,0.3-0.6C-110.5,279.4-110,279.4-109.7,279.4
			 M-109.7,276.4c-3.4,0-3,0.1-4.6,3.4l-6.6,12.9c-1,1.9-1.5,3.3-2,5.4l-5.5,25.9c-0.7,3.7,0.8,6.4,4.4,6.4h20.4l4.8-12.3h-14
			c5.2-24.4,1-4.9,6.2-29.3h11.8l4.7-12.3L-109.7,276.4L-109.7,276.4z"/>
	</g>
	<g id="XMLID_44_">
		<polygon id="XMLID_106_" fill="#8DC63F" points="-95.7,328.9 -84.9,277.6 -73.6,277.6 -84.5,328.9 		"/>
		<path id="XMLID_71_" fill="#FFFFFF" d="M-75.4,279.1l-10.2,48.3h-8.2l10.1-48.3H-75.4 M-71.7,276.1h-14.4l-11.4,54.3h14.3
			L-71.7,276.1L-71.7,276.1z"/>
	</g>
	<g id="XMLID_50_">
		<path id="XMLID_105_" fill="#8DC63F" d="M-76.2,328.9l6.4-30.7c0.4-1.9,0.8-3.1,1.8-5l6.7-12.9c0.3-0.5,0.5-1,0.7-1.4
			c0.2-0.5,0.5-1,0.6-1.1c0.2-0.1,1.2-0.1,1.9-0.1h17.7l-3.6,9.4h-12l-2.6,11.6h13.7l-3.6,9.4h-12.1l-4.4,20.8H-76.2z"/>
		<path id="XMLID_75_" fill="#FFFFFF" d="M-42.6,279.2l-2.4,6.4h-9.8h-2.4l-0.5,2.4l-1.9,8.6l-0.8,3.6h3.7h9.7l-2.4,6.4h-9.8h-2.4
			l-0.5,2.4l-3.9,18.4h-8.2l6.1-28.9c0.3-1.7,0.7-2.8,1.6-4.6l6.7-12.9c0.3-0.6,0.5-1,0.7-1.4c0.1-0.1,0.1-0.2,0.2-0.3
			c0.3,0,0.7,0,1,0h15.3 M-38.2,276.2h-19.9c-3.4,0-2.8,0.1-4.5,3.4l-6.7,12.9c-1,2-1.5,3.4-1.9,5.4l-6.8,32.5h14.3l4.4-20.8h11.9
			l4.7-12.4h-14l1.9-8.6h11.9L-38.2,276.2L-38.2,276.2z"/>
	</g>
	<g id="XMLID_56_">
		<polygon id="XMLID_104_" fill="#8DC63F" points="-44,328.9 -33.2,277.6 -21.9,277.6 -32.8,328.9 		"/>
		<path id="XMLID_82_" fill="#FFFFFF" d="M-23.7,279.1L-34,327.4h-8.2l10.2-48.3H-23.7 M-20,276.1h-14.4l-11.4,54.3h14.3L-20,276.1
			L-20,276.1z"/>
	</g>
	<g id="XMLID_62_">
		<path id="XMLID_103_" fill="#8DC63F" d="M-23.2,328.9c-0.6,0-1,0-1.2,0c0-0.2,0.1-0.5,0.2-1.1l6.3-29.6c0.4-2,0.8-3.2,1.8-5
			l6.7-13c0.3-0.5,0.5-1,0.7-1.4c0.2-0.5,0.5-1,0.6-1.1c0.2-0.1,1.2-0.1,1.9-0.1l17.7,0.1L7.9,287H-4.2l-2.6,11.7H7l-3.6,9.4H-8.7
			l-2.4,11.4H2.7l-3.6,9.4C-0.9,328.9-23.2,328.9-23.2,328.9z"/>
		<path id="XMLID_100_" fill="#FFFFFF" d="M-6.3,279.1l15.6,0.1l-2.4,6.3H-3h-2.4l-0.5,2.4l-1.9,8.7l-0.8,3.6h3.7h9.7l-2.5,6.4h-9.8
			H-10l-0.5,2.4l-1.8,8.4l-0.8,3.6h3.7h9.8l-2.4,6.4h-20.6l6.1-28.9l0,0l0,0c0.3-1.8,0.7-2.9,1.6-4.6l6.7-13c0.3-0.6,0.5-1,0.7-1.4
			c0.1-0.1,0.1-0.2,0.2-0.3C-7,279.1-6.6,279.1-6.3,279.1 M-6.3,276.1c-3.4,0-2.8,0.1-4.5,3.4l-6.7,13c-1,1.9-1.5,3.3-1.9,5.4
			l-6.3,29.6c-0.5,2.6-0.1,2.9,2.5,2.9H0.1L4.8,318H-9.3l1.8-8.4H4.4l4.8-12.4H-4.9l1.9-8.7H8.9l4.7-12.3L-6.3,276.1L-6.3,276.1z"/>
	</g>
	<g id="XMLID_68_">
		<path id="XMLID_123_" fill="#8DC63F" d="M28.9,328.9l-2.5-17.6l-3.6,2.3l-3.3,15.3H8.3l10.8-51h28.7c1,0,1.8,0.3,2.2,0.7
			c0.5,0.6,0.6,1.8,0.3,3.4l-2.7,11.8c-0.7,4.1-1.5,5.3-4.5,7.1L38,304l3,24.9H28.9z M25.1,302.5l10.9-6.8l1.7-8.4h-9.5L25.1,302.5z
			"/>
		<path id="XMLID_118_" fill="#FFFFFF" d="M47.7,279.4c0.7,0,1,0.2,1,0.2c0.1,0.1,0.3,0.8,0,2.2l-2.5,11.7l0,0l0,0
			c-0.7,3.8-1.3,4.6-3.8,6.1l-4.3,2.6l-1.7,1l0.2,1.9l2.7,22.2h-9.1l-2-14l-0.7-4.6l-3.9,2.5l-1.1,0.7l-1.1,0.7l-0.3,1.2l-2.9,13.5
			H10l10.1-48h27.6 M22.9,305.6l5.9-3.7l7.4-4.6l1.1-0.7l0.3-1.3l1.2-6l0.7-3.6h-3.7h-6.4H27l-0.5,2.4l-2.2,10.6L22.9,305.6
			 M47.7,276.4c-10.8,0-18.9,0-29.9,0l-11.4,54h14.3l3.4-15.9l1.1-0.7l2.4,16.6h15.1l-3.1-25.6l4.3-2.6c3.4-2.1,4.4-3.7,5.2-8.1
			l2.5-11.7C52.5,278.2,50.7,276.4,47.7,276.4L47.7,276.4z M35.9,288.7l-1.2,6l-7.4,4.6l2.2-10.6H35.9L35.9,288.7z"/>
	</g>
	<g id="XMLID_79_">
		<path id="XMLID_115_" fill="#8DC63F" d="M49,328.9l3.6-9.3h14.2l1.8-8.4l-15.8-8.7c-0.3-0.2-0.8-0.6-0.9-0.7
			c0-0.2,0.2-0.9,0.4-1.7l0.2-0.9l0.1-0.4c0.4-1.4,1.2-4.3,1.9-5.6l6.7-12.9c0.3-0.6,0.5-1,0.7-1.4c0.2-0.5,0.5-1,0.6-1.1
			c0.2-0.1,1.3-0.1,1.9-0.1l19.4,0.1l-3.5,9.3H66.4l-1.8,8.1l16.2,9.5c0.2,0.2,0.2,0.6-0.1,2.4c-0.3,1.5-1.3,4.7-2.1,6.3l-6.6,13
			c-0.3,0.5-0.5,1-0.7,1.4c-0.2,0.5-0.5,1-0.6,1.1c-0.2,0.1-1.2,0.1-1.9,0.1L49,328.9z"/>
		<path id="XMLID_112_" fill="#FFFFFF" d="M64.4,279.2l17.3,0.1l-2.4,6.3H67.7h-2.4l-0.5,2.4l-1.3,5.9L63,296l1.9,1.1l14.6,8.6
			c0,0.4-0.1,0.9-0.1,1.2c-0.3,1.4-1.2,4.4-2,5.8l0,0l0,0l-6.7,13.1c-0.3,0.6-0.5,1-0.7,1.4c-0.1,0.1-0.1,0.2-0.2,0.3
			c-0.3,0-0.7,0-1,0l-17.7-0.1l2.4-6.3h11.9h2.4l0.5-2.4l1.3-6.1l0.5-2.2l-2-1.1l-14.7-8.1c0,0,0,0-0.1,0c0.1-0.2,0.1-0.5,0.2-0.7
			c0.1-0.3,0.2-0.6,0.2-0.9l0.1-0.4c0.4-1.3,1.2-4.2,1.8-5.3l6.7-12.9c0.3-0.6,0.5-1.1,0.7-1.5c0-0.1,0.1-0.2,0.2-0.3
			C63.8,279.2,64.2,279.2,64.4,279.2 M64.4,276.2c-3.4,0-2.8,0.2-4.5,3.4l-6.7,12.9c-0.8,1.6-1.7,4.9-2.1,6.3
			c-0.9,3.4-1.2,3.5,0.9,5l14.9,8.2l-1.3,6.1h-14l-4.7,12.3l22,0.1c3.4,0,2.8-0.1,4.5-3.4l6.6-12.9c1-1.8,2-5.2,2.3-6.8
			c0.3-2.2,0.4-3.2-0.6-3.9l-15.3-9l1.3-5.9h13.7l4.6-12.3L64.4,276.2L64.4,276.2z"/>
	</g>
</g>
</svg>
