<?xml version="1.0" encoding="utf-8"?>
<!-- Generator: Adobe Illustrator 19.0.0, SVG Export Plug-In . SVG Version: 6.00 Build 0)  -->
<!DOCTYPE svg PUBLIC "-//W3C//DTD SVG 1.1//EN" "http://www.w3.org/Graphics/SVG/1.1/DTD/svg11.dtd">
<svg version="1.1" id="Layer_1" xmlns="http://www.w3.org/2000/svg" xmlns:xlink="http://www.w3.org/1999/xlink" x="0px" y="0px"
	 viewBox="0 0 431.1 352.9" enable-background="new 0 0 431.1 352.9" xml:space="preserve">
<g>
	<path d="M178.2,163.5c10.6-15.3,28-31.9,47.3-35c22.1-3.5,23.3,23.5,21.7,38.6c-0.1,1.2-0.4,6.4,2.2,5.4
		c23.9-8.5,43.5-25.1,65-38.1c19.8-12,44.1-21.2,67.4-15.8c39.5,9.1,46.2,55.9,37.7,89.2c-4.7,18.5-15.9,35.2-27.7,49.9
		c-13.5,16.9-30.3,31.8-49,42.7c-17.2,10-37.6,16.1-57.5,12.6c-20.1-3.5-38.6-17.3-38-39.1c0.3-9.8,4.3-19.2,9.5-27.4
		c2.6-4-1.1-13.8-6.6-12.8c-21.2,4-40.2,16.3-60.8,22.3c-9.2,2.7-19.6,4.5-28.8,0.8c-6.8-2.7-11.9-7.8-13.7-13.4
		c-1.8-5.3-0.6-13.8,1-20.3c2.2-8.8,6-17.2,10.2-25.2c8.4-16.1,19.6-31.3,30.3-45.6c1.2-1.6,2.4-3.4,3.8-4.9
		c3.1-3.4-0.8-15.8-5.3-11c-2.3,2.5-5.2,4.4-7.5,6.9c-2.8,3.1-5.4,6.4-8,9.6c-5.8,7.3-11,15-15.9,22.9c-9.7,15.7-18,33.1-19.7,51.6
		c-1.6,17.7,6.8,34.3,22.7,42.5c18.9,9.7,42.6-1.2,60.3-8.6c11.7-4.9,23.5-10.9,36.1-13.2c-2.2-4.3-4.4-8.5-6.6-12.8
		c-12.1,19.2-15,44.2-3.2,64.4c10.9,18.6,32.5,28.5,53.6,28.8c42.1,0.6,79.4-32.2,103.5-63.7c11.5-15.1,21.3-32.3,25.5-50.9
		c4.7-20.7,4.6-42.6-1.6-62.9c-5.3-17.3-16.1-33.1-32.6-41.2c-18.9-9.4-41.7-5.3-60.3,2.5c-30.1,12.7-52.6,38.9-83.6,49.9
		c0.7,1.8,1.5,3.6,2.2,5.4c1.8-16.7,2.3-51.9-23.3-49.1c-23.1,2.5-40.7,26.5-52.1,44.4C174.7,165.8,176.9,165.3,178.2,163.5
		L178.2,163.5z"/>
</g>
<g>
	<path d="M316.1,113.5c6.4-40.2-4-96.9-48.4-110.6c-37.8-11.7-77.4,15.2-105,38c-29,23.9-54.6,52.2-76.3,82.8
		C62.1,157.7,41.8,197.6,39,240c-1.3,20.6,2.8,41.6,13.3,59.5c12,20.6,32.3,36.1,54,45.4c22.6,9.7,47.6,10.6,70.8,2.8
		c23.1-7.7,43.4-23.8,58.2-42.9c3.9-5.1,7.2-10.6,10.2-16.3c2.2-4.1-2.3-17.2-6.9-11.1c-15.1,20-32.9,39.2-55.5,50.7
		c-21.4,10.9-45.5,13-68.5,6c-22.6-6.8-44.6-22.5-57-42.8c-9.8-16.1-12.4-34.8-11-53.4c1.6-20.8,8.7-41.1,17.3-59.9
		c8.9-19.5,20.2-38,32.9-55.2c22.4-30.2,49-58.6,79.3-80.9c25.9-19,61.4-38.4,94.1-26c38.4,14.6,46.4,64.5,41.8,100.5
		c-0.1,0.9,0,3.3,1.6,2.2C315.1,117.5,315.8,115.3,316.1,113.5L316.1,113.5z"/>
</g>
<g>
	<path d="M33.6,222.6c-13.5-17.2-28.6-34.9-27.9-58c0.5-19.2,12.7-37.3,25.8-50.5c15.1-15.2,34-26.8,53.8-34.9
		c10.1-4.2,20.7-7.3,31.4-9.5c5-1,10.1-1.7,15.2-2.3c4.9-0.6,9.9-0.4,14.7-1.4c4.2-0.9,3.9-11.9-0.2-12.7c-10.6-1.9-22-0.1-32.5,1.9
		C103.3,57.3,93,60.5,83,64.6c-19.6,8-37.8,19.3-52.8,34.3c-13.4,13.4-24.4,29.9-28.4,48.7c-4.5,21.3-0.3,43,11.6,61.2
		c4.5,6.9,10.2,13,17.1,17.7C31.3,226.9,34.3,223.4,33.6,222.6L33.6,222.6z"/>
</g>
</svg>
